solid OpenSCAD_Model
  facet normal -0.99863 -0.0523357 0
    outer loop
      vertex 2.4 -6 2.8
      vertex 2.38685 -5.74913 6.8
      vertex 2.38685 -5.74913 2.8
    endloop
  endfacet
  facet normal -0.99863 -0.0523357 0
    outer loop
      vertex 2.38685 -5.74913 6.8
      vertex 2.4 -6 2.8
      vertex 2.4 -6 6.8
    endloop
  endfacet
  facet normal 0.99863 -0.0523357 0
    outer loop
      vertex -2.4 -6 6.8
      vertex -2.38685 -5.74913 2.8
      vertex -2.38685 -5.74913 6.8
    endloop
  endfacet
  facet normal 0.99863 -0.0523357 0
    outer loop
      vertex -2.38685 -5.74913 2.8
      vertex -2.4 -6 6.8
      vertex -2.4 -6 2.8
    endloop
  endfacet
  facet normal 0.0523357 -0.99863 0
    outer loop
      vertex -0.250868 -3.61315 2.8
      vertex 0 -3.6 6.8
      vertex -0.250868 -3.61315 6.8
    endloop
  endfacet
  facet normal 0.0523357 -0.99863 0
    outer loop
      vertex 0 -3.6 6.8
      vertex -0.250868 -3.61315 2.8
      vertex 0 -3.6 2.8
    endloop
  endfacet
  facet normal -0.0523357 0.99863 0
    outer loop
      vertex 0.250868 -8.38685 2.8
      vertex 0 -8.4 6.8
      vertex 0.250868 -8.38685 6.8
    endloop
  endfacet
  facet normal -0.0523357 0.99863 0
    outer loop
      vertex 0 -8.4 6.8
      vertex 0.250868 -8.38685 2.8
      vertex 0 -8.4 2.8
    endloop
  endfacet
  facet normal -0.707107 -0.707107 0
    outer loop
      vertex 1.78355 -4.39409 2.8
      vertex 1.60591 -4.21645 6.8
      vertex 1.60591 -4.21645 2.8
    endloop
  endfacet
  facet normal -0.707107 -0.707107 0
    outer loop
      vertex 1.60591 -4.21645 6.8
      vertex 1.78355 -4.39409 2.8
      vertex 1.78355 -4.39409 6.8
    endloop
  endfacet
  facet normal 0.707107 -0.707107 0
    outer loop
      vertex -1.78355 -4.39409 6.8
      vertex -1.60591 -4.21645 2.8
      vertex -1.60591 -4.21645 6.8
    endloop
  endfacet
  facet normal 0.707107 -0.707107 0
    outer loop
      vertex -1.60591 -4.21645 2.8
      vertex -1.78355 -4.39409 6.8
      vertex -1.78355 -4.39409 2.8
    endloop
  endfacet
  facet normal 0.45399 -0.891007 0
    outer loop
      vertex -1.2 -3.92154 2.8
      vertex -0.976168 -3.80749 6.8
      vertex -1.2 -3.92154 6.8
    endloop
  endfacet
  facet normal 0.45399 -0.891007 0
    outer loop
      vertex -0.976168 -3.80749 6.8
      vertex -1.2 -3.92154 2.8
      vertex -0.976168 -3.80749 2.8
    endloop
  endfacet
  facet normal -0.891007 -0.45399 0
    outer loop
      vertex 2.19251 -5.02383 2.8
      vertex 2.07846 -4.8 6.8
      vertex 2.07846 -4.8 2.8
    endloop
  endfacet
  facet normal -0.891007 -0.45399 0
    outer loop
      vertex 2.07846 -4.8 6.8
      vertex 2.19251 -5.02383 2.8
      vertex 2.19251 -5.02383 6.8
    endloop
  endfacet
  facet normal -0.358368 -0.93358 0
    outer loop
      vertex 0.74164 -3.71746 2.8
      vertex 0.976168 -3.80749 6.8
      vertex 0.74164 -3.71746 6.8
    endloop
  endfacet
  facet normal -0.358368 -0.93358 -0
    outer loop
      vertex 0.976168 -3.80749 6.8
      vertex 0.74164 -3.71746 2.8
      vertex 0.976168 -3.80749 2.8
    endloop
  endfacet
  facet normal -0.54464 -0.83867 0
    outer loop
      vertex 1.2 -3.92154 2.8
      vertex 1.41068 -4.05836 6.8
      vertex 1.2 -3.92154 6.8
    endloop
  endfacet
  facet normal -0.54464 -0.83867 -0
    outer loop
      vertex 1.41068 -4.05836 6.8
      vertex 1.2 -3.92154 2.8
      vertex 1.41068 -4.05836 2.8
    endloop
  endfacet
  facet normal 0.93358 -0.358368 0
    outer loop
      vertex -2.28254 -5.25836 6.8
      vertex -2.19251 -5.02383 2.8
      vertex -2.19251 -5.02383 6.8
    endloop
  endfacet
  facet normal 0.93358 -0.358368 0
    outer loop
      vertex -2.19251 -5.02383 2.8
      vertex -2.28254 -5.25836 6.8
      vertex -2.28254 -5.25836 2.8
    endloop
  endfacet
  facet normal 0.965926 -0.258819 0
    outer loop
      vertex -2.34755 -5.50101 6.8
      vertex -2.28254 -5.25836 2.8
      vertex -2.28254 -5.25836 6.8
    endloop
  endfacet
  facet normal 0.965926 -0.258819 0
    outer loop
      vertex -2.28254 -5.25836 2.8
      vertex -2.34755 -5.50101 6.8
      vertex -2.34755 -5.50101 2.8
    endloop
  endfacet
  facet normal 0.258819 -0.965926 0
    outer loop
      vertex -0.74164 -3.71746 2.8
      vertex -0.498987 -3.65245 6.8
      vertex -0.74164 -3.71746 6.8
    endloop
  endfacet
  facet normal 0.258819 -0.965926 0
    outer loop
      vertex -0.498987 -3.65245 6.8
      vertex -0.74164 -3.71746 2.8
      vertex -0.498987 -3.65245 2.8
    endloop
  endfacet
  facet normal -0.965926 0.258819 0
    outer loop
      vertex 2.28254 -6.74164 2.8
      vertex 2.34755 -6.49899 6.8
      vertex 2.34755 -6.49899 2.8
    endloop
  endfacet
  facet normal -0.965926 0.258819 0
    outer loop
      vertex 2.34755 -6.49899 6.8
      vertex 2.28254 -6.74164 2.8
      vertex 2.28254 -6.74164 6.8
    endloop
  endfacet
  facet normal -0.156434 0.987688 0
    outer loop
      vertex 0.498987 -8.34755 2.8
      vertex 0.250868 -8.38685 6.8
      vertex 0.498987 -8.34755 6.8
    endloop
  endfacet
  facet normal -0.156434 0.987688 0
    outer loop
      vertex 0.250868 -8.38685 6.8
      vertex 0.498987 -8.34755 2.8
      vertex 0.250868 -8.38685 2.8
    endloop
  endfacet
  facet normal -0.965926 -0.258819 0
    outer loop
      vertex 2.34755 -5.50101 2.8
      vertex 2.28254 -5.25836 6.8
      vertex 2.28254 -5.25836 2.8
    endloop
  endfacet
  facet normal -0.965926 -0.258819 0
    outer loop
      vertex 2.28254 -5.25836 6.8
      vertex 2.34755 -5.50101 2.8
      vertex 2.34755 -5.50101 6.8
    endloop
  endfacet
  facet normal -0.987688 -0.156434 0
    outer loop
      vertex 2.38685 -5.74913 2.8
      vertex 2.34755 -5.50101 6.8
      vertex 2.34755 -5.50101 2.8
    endloop
  endfacet
  facet normal -0.987688 -0.156434 0
    outer loop
      vertex 2.34755 -5.50101 6.8
      vertex 2.38685 -5.74913 2.8
      vertex 2.38685 -5.74913 6.8
    endloop
  endfacet
  facet normal -0.93358 -0.358368 0
    outer loop
      vertex 2.28254 -5.25836 2.8
      vertex 2.19251 -5.02383 6.8
      vertex 2.19251 -5.02383 2.8
    endloop
  endfacet
  facet normal -0.93358 -0.358368 0
    outer loop
      vertex 2.19251 -5.02383 6.8
      vertex 2.28254 -5.25836 2.8
      vertex 2.28254 -5.25836 6.8
    endloop
  endfacet
  facet normal -0.777147 -0.629319 0
    outer loop
      vertex 1.94164 -4.58932 2.8
      vertex 1.78355 -4.39409 6.8
      vertex 1.78355 -4.39409 2.8
    endloop
  endfacet
  facet normal -0.777147 -0.629319 0
    outer loop
      vertex 1.78355 -4.39409 6.8
      vertex 1.94164 -4.58932 2.8
      vertex 1.94164 -4.58932 6.8
    endloop
  endfacet
  facet normal -0.83867 -0.54464 0
    outer loop
      vertex 2.07846 -4.8 2.8
      vertex 1.94164 -4.58932 6.8
      vertex 1.94164 -4.58932 2.8
    endloop
  endfacet
  facet normal -0.83867 -0.54464 0
    outer loop
      vertex 1.94164 -4.58932 6.8
      vertex 2.07846 -4.8 2.8
      vertex 2.07846 -4.8 6.8
    endloop
  endfacet
  facet normal -0.156434 -0.987688 0
    outer loop
      vertex 0.250868 -3.61315 2.8
      vertex 0.498987 -3.65245 6.8
      vertex 0.250868 -3.61315 6.8
    endloop
  endfacet
  facet normal -0.156434 -0.987688 -0
    outer loop
      vertex 0.498987 -3.65245 6.8
      vertex 0.250868 -3.61315 2.8
      vertex 0.498987 -3.65245 2.8
    endloop
  endfacet
  facet normal -0.258819 -0.965926 0
    outer loop
      vertex 0.498987 -3.65245 2.8
      vertex 0.74164 -3.71746 6.8
      vertex 0.498987 -3.65245 6.8
    endloop
  endfacet
  facet normal -0.258819 -0.965926 -0
    outer loop
      vertex 0.74164 -3.71746 6.8
      vertex 0.498987 -3.65245 2.8
      vertex 0.74164 -3.71746 2.8
    endloop
  endfacet
  facet normal -0.0523357 -0.99863 0
    outer loop
      vertex 0 -3.6 2.8
      vertex 0.250868 -3.61315 6.8
      vertex 0 -3.6 6.8
    endloop
  endfacet
  facet normal -0.0523357 -0.99863 -0
    outer loop
      vertex 0.250868 -3.61315 6.8
      vertex 0 -3.6 2.8
      vertex 0.250868 -3.61315 2.8
    endloop
  endfacet
  facet normal -0.45399 -0.891007 0
    outer loop
      vertex 0.976168 -3.80749 2.8
      vertex 1.2 -3.92154 6.8
      vertex 0.976168 -3.80749 6.8
    endloop
  endfacet
  facet normal -0.45399 -0.891007 -0
    outer loop
      vertex 1.2 -3.92154 6.8
      vertex 0.976168 -3.80749 2.8
      vertex 1.2 -3.92154 2.8
    endloop
  endfacet
  facet normal -0.629319 -0.777147 0
    outer loop
      vertex 1.41068 -4.05836 2.8
      vertex 1.60591 -4.21645 6.8
      vertex 1.41068 -4.05836 6.8
    endloop
  endfacet
  facet normal -0.629319 -0.777147 -0
    outer loop
      vertex 1.60591 -4.21645 6.8
      vertex 1.41068 -4.05836 2.8
      vertex 1.60591 -4.21645 2.8
    endloop
  endfacet
  facet normal 0.83867 -0.54464 0
    outer loop
      vertex -2.07846 -4.8 6.8
      vertex -1.94164 -4.58932 2.8
      vertex -1.94164 -4.58932 6.8
    endloop
  endfacet
  facet normal 0.83867 -0.54464 0
    outer loop
      vertex -1.94164 -4.58932 2.8
      vertex -2.07846 -4.8 6.8
      vertex -2.07846 -4.8 2.8
    endloop
  endfacet
  facet normal 0.777147 -0.629319 0
    outer loop
      vertex -1.94164 -4.58932 6.8
      vertex -1.78355 -4.39409 2.8
      vertex -1.78355 -4.39409 6.8
    endloop
  endfacet
  facet normal 0.777147 -0.629319 0
    outer loop
      vertex -1.78355 -4.39409 2.8
      vertex -1.94164 -4.58932 6.8
      vertex -1.94164 -4.58932 2.8
    endloop
  endfacet
  facet normal 0.891007 -0.45399 0
    outer loop
      vertex -2.19251 -5.02383 6.8
      vertex -2.07846 -4.8 2.8
      vertex -2.07846 -4.8 6.8
    endloop
  endfacet
  facet normal 0.891007 -0.45399 0
    outer loop
      vertex -2.07846 -4.8 2.8
      vertex -2.19251 -5.02383 6.8
      vertex -2.19251 -5.02383 2.8
    endloop
  endfacet
  facet normal 0.987688 -0.156434 0
    outer loop
      vertex -2.38685 -5.74913 6.8
      vertex -2.34755 -5.50101 2.8
      vertex -2.34755 -5.50101 6.8
    endloop
  endfacet
  facet normal 0.987688 -0.156434 0
    outer loop
      vertex -2.34755 -5.50101 2.8
      vertex -2.38685 -5.74913 6.8
      vertex -2.38685 -5.74913 2.8
    endloop
  endfacet
  facet normal 0.54464 -0.83867 0
    outer loop
      vertex -1.41068 -4.05836 2.8
      vertex -1.2 -3.92154 6.8
      vertex -1.41068 -4.05836 6.8
    endloop
  endfacet
  facet normal 0.54464 -0.83867 0
    outer loop
      vertex -1.2 -3.92154 6.8
      vertex -1.41068 -4.05836 2.8
      vertex -1.2 -3.92154 2.8
    endloop
  endfacet
  facet normal 0.629319 -0.777147 0
    outer loop
      vertex -1.60591 -4.21645 2.8
      vertex -1.41068 -4.05836 6.8
      vertex -1.60591 -4.21645 6.8
    endloop
  endfacet
  facet normal 0.629319 -0.777147 0
    outer loop
      vertex -1.41068 -4.05836 6.8
      vertex -1.60591 -4.21645 2.8
      vertex -1.41068 -4.05836 2.8
    endloop
  endfacet
  facet normal 0.358368 -0.93358 0
    outer loop
      vertex -0.976168 -3.80749 2.8
      vertex -0.74164 -3.71746 6.8
      vertex -0.976168 -3.80749 6.8
    endloop
  endfacet
  facet normal 0.358368 -0.93358 0
    outer loop
      vertex -0.74164 -3.71746 6.8
      vertex -0.976168 -3.80749 2.8
      vertex -0.74164 -3.71746 2.8
    endloop
  endfacet
  facet normal 0.156434 -0.987688 0
    outer loop
      vertex -0.498987 -3.65245 2.8
      vertex -0.250868 -3.61315 6.8
      vertex -0.498987 -3.65245 6.8
    endloop
  endfacet
  facet normal 0.156434 -0.987688 0
    outer loop
      vertex -0.250868 -3.61315 6.8
      vertex -0.498987 -3.65245 2.8
      vertex -0.250868 -3.61315 2.8
    endloop
  endfacet
  facet normal -0.54464 0.83867 0
    outer loop
      vertex 1.41068 -7.94164 2.8
      vertex 1.2 -8.07846 6.8
      vertex 1.41068 -7.94164 6.8
    endloop
  endfacet
  facet normal -0.54464 0.83867 0
    outer loop
      vertex 1.2 -8.07846 6.8
      vertex 1.41068 -7.94164 2.8
      vertex 1.2 -8.07846 2.8
    endloop
  endfacet
  facet normal -0.707107 0.707107 0
    outer loop
      vertex 1.60591 -7.78355 2.8
      vertex 1.78355 -7.60591 6.8
      vertex 1.78355 -7.60591 2.8
    endloop
  endfacet
  facet normal -0.707107 0.707107 0
    outer loop
      vertex 1.78355 -7.60591 6.8
      vertex 1.60591 -7.78355 2.8
      vertex 1.60591 -7.78355 6.8
    endloop
  endfacet
  facet normal -0.987688 0.156434 0
    outer loop
      vertex 2.34755 -6.49899 2.8
      vertex 2.38685 -6.25087 6.8
      vertex 2.38685 -6.25087 2.8
    endloop
  endfacet
  facet normal -0.987688 0.156434 0
    outer loop
      vertex 2.38685 -6.25087 6.8
      vertex 2.34755 -6.49899 2.8
      vertex 2.34755 -6.49899 6.8
    endloop
  endfacet
  facet normal -0.99863 0.0523357 0
    outer loop
      vertex 2.38685 -6.25087 2.8
      vertex 2.4 -6 6.8
      vertex 2.4 -6 2.8
    endloop
  endfacet
  facet normal -0.99863 0.0523357 0
    outer loop
      vertex 2.4 -6 6.8
      vertex 2.38685 -6.25087 2.8
      vertex 2.38685 -6.25087 6.8
    endloop
  endfacet
  facet normal -0.891007 0.45399 0
    outer loop
      vertex 2.07846 -7.2 2.8
      vertex 2.19251 -6.97617 6.8
      vertex 2.19251 -6.97617 2.8
    endloop
  endfacet
  facet normal -0.891007 0.45399 0
    outer loop
      vertex 2.19251 -6.97617 6.8
      vertex 2.07846 -7.2 2.8
      vertex 2.07846 -7.2 6.8
    endloop
  endfacet
  facet normal -0.777147 0.629319 0
    outer loop
      vertex 1.78355 -7.60591 2.8
      vertex 1.94164 -7.41068 6.8
      vertex 1.94164 -7.41068 2.8
    endloop
  endfacet
  facet normal -0.777147 0.629319 0
    outer loop
      vertex 1.94164 -7.41068 6.8
      vertex 1.78355 -7.60591 2.8
      vertex 1.78355 -7.60591 6.8
    endloop
  endfacet
  facet normal 0.777147 0.629319 0
    outer loop
      vertex -1.78355 -7.60591 6.8
      vertex -1.94164 -7.41068 2.8
      vertex -1.94164 -7.41068 6.8
    endloop
  endfacet
  facet normal 0.777147 0.629319 0
    outer loop
      vertex -1.94164 -7.41068 2.8
      vertex -1.78355 -7.60591 6.8
      vertex -1.78355 -7.60591 2.8
    endloop
  endfacet
  facet normal 0.891007 0.45399 0
    outer loop
      vertex -2.07846 -7.2 6.8
      vertex -2.19251 -6.97617 2.8
      vertex -2.19251 -6.97617 6.8
    endloop
  endfacet
  facet normal 0.891007 0.45399 0
    outer loop
      vertex -2.19251 -6.97617 2.8
      vertex -2.07846 -7.2 6.8
      vertex -2.07846 -7.2 2.8
    endloop
  endfacet
  facet normal 0.965926 0.258819 0
    outer loop
      vertex -2.28254 -6.74164 6.8
      vertex -2.34755 -6.49899 2.8
      vertex -2.34755 -6.49899 6.8
    endloop
  endfacet
  facet normal 0.965926 0.258819 0
    outer loop
      vertex -2.34755 -6.49899 2.8
      vertex -2.28254 -6.74164 6.8
      vertex -2.28254 -6.74164 2.8
    endloop
  endfacet
  facet normal -0.358368 0.93358 0
    outer loop
      vertex 0.976168 -8.19251 2.8
      vertex 0.74164 -8.28254 6.8
      vertex 0.976168 -8.19251 6.8
    endloop
  endfacet
  facet normal -0.358368 0.93358 0
    outer loop
      vertex 0.74164 -8.28254 6.8
      vertex 0.976168 -8.19251 2.8
      vertex 0.74164 -8.28254 2.8
    endloop
  endfacet
  facet normal -0.258819 0.965926 0
    outer loop
      vertex 0.74164 -8.28254 2.8
      vertex 0.498987 -8.34755 6.8
      vertex 0.74164 -8.28254 6.8
    endloop
  endfacet
  facet normal -0.258819 0.965926 0
    outer loop
      vertex 0.498987 -8.34755 6.8
      vertex 0.74164 -8.28254 2.8
      vertex 0.498987 -8.34755 2.8
    endloop
  endfacet
  facet normal -0.629319 0.777147 0
    outer loop
      vertex 1.60591 -7.78355 2.8
      vertex 1.41068 -7.94164 6.8
      vertex 1.60591 -7.78355 6.8
    endloop
  endfacet
  facet normal -0.629319 0.777147 0
    outer loop
      vertex 1.41068 -7.94164 6.8
      vertex 1.60591 -7.78355 2.8
      vertex 1.41068 -7.94164 2.8
    endloop
  endfacet
  facet normal -0.93358 0.358368 0
    outer loop
      vertex 2.19251 -6.97617 2.8
      vertex 2.28254 -6.74164 6.8
      vertex 2.28254 -6.74164 2.8
    endloop
  endfacet
  facet normal -0.93358 0.358368 0
    outer loop
      vertex 2.28254 -6.74164 6.8
      vertex 2.19251 -6.97617 2.8
      vertex 2.19251 -6.97617 6.8
    endloop
  endfacet
  facet normal -0.83867 0.54464 0
    outer loop
      vertex 1.94164 -7.41068 2.8
      vertex 2.07846 -7.2 6.8
      vertex 2.07846 -7.2 2.8
    endloop
  endfacet
  facet normal -0.83867 0.54464 0
    outer loop
      vertex 2.07846 -7.2 6.8
      vertex 1.94164 -7.41068 2.8
      vertex 1.94164 -7.41068 6.8
    endloop
  endfacet
  facet normal 0.156434 0.987688 -0
    outer loop
      vertex -0.250868 -8.38685 2.8
      vertex -0.498987 -8.34755 6.8
      vertex -0.250868 -8.38685 6.8
    endloop
  endfacet
  facet normal 0.156434 0.987688 0
    outer loop
      vertex -0.498987 -8.34755 6.8
      vertex -0.250868 -8.38685 2.8
      vertex -0.498987 -8.34755 2.8
    endloop
  endfacet
  facet normal 0.358368 0.93358 -0
    outer loop
      vertex -0.74164 -8.28254 2.8
      vertex -0.976168 -8.19251 6.8
      vertex -0.74164 -8.28254 6.8
    endloop
  endfacet
  facet normal 0.358368 0.93358 0
    outer loop
      vertex -0.976168 -8.19251 6.8
      vertex -0.74164 -8.28254 2.8
      vertex -0.976168 -8.19251 2.8
    endloop
  endfacet
  facet normal 0.707107 0.707107 0
    outer loop
      vertex -1.60591 -7.78355 6.8
      vertex -1.78355 -7.60591 2.8
      vertex -1.78355 -7.60591 6.8
    endloop
  endfacet
  facet normal 0.707107 0.707107 0
    outer loop
      vertex -1.78355 -7.60591 2.8
      vertex -1.60591 -7.78355 6.8
      vertex -1.60591 -7.78355 2.8
    endloop
  endfacet
  facet normal 0.83867 0.54464 0
    outer loop
      vertex -1.94164 -7.41068 6.8
      vertex -2.07846 -7.2 2.8
      vertex -2.07846 -7.2 6.8
    endloop
  endfacet
  facet normal 0.83867 0.54464 0
    outer loop
      vertex -2.07846 -7.2 2.8
      vertex -1.94164 -7.41068 6.8
      vertex -1.94164 -7.41068 2.8
    endloop
  endfacet
  facet normal 0.93358 0.358368 0
    outer loop
      vertex -2.19251 -6.97617 6.8
      vertex -2.28254 -6.74164 2.8
      vertex -2.28254 -6.74164 6.8
    endloop
  endfacet
  facet normal 0.93358 0.358368 0
    outer loop
      vertex -2.28254 -6.74164 2.8
      vertex -2.19251 -6.97617 6.8
      vertex -2.19251 -6.97617 2.8
    endloop
  endfacet
  facet normal 0.987688 0.156434 0
    outer loop
      vertex -2.34755 -6.49899 6.8
      vertex -2.38685 -6.25087 2.8
      vertex -2.38685 -6.25087 6.8
    endloop
  endfacet
  facet normal 0.987688 0.156434 0
    outer loop
      vertex -2.38685 -6.25087 2.8
      vertex -2.34755 -6.49899 6.8
      vertex -2.34755 -6.49899 2.8
    endloop
  endfacet
  facet normal 0.99863 0.0523357 0
    outer loop
      vertex -2.38685 -6.25087 6.8
      vertex -2.4 -6 2.8
      vertex -2.4 -6 6.8
    endloop
  endfacet
  facet normal 0.99863 0.0523357 0
    outer loop
      vertex -2.4 -6 2.8
      vertex -2.38685 -6.25087 6.8
      vertex -2.38685 -6.25087 2.8
    endloop
  endfacet
  facet normal -0.45399 0.891007 0
    outer loop
      vertex 1.2 -8.07846 2.8
      vertex 0.976168 -8.19251 6.8
      vertex 1.2 -8.07846 6.8
    endloop
  endfacet
  facet normal -0.45399 0.891007 0
    outer loop
      vertex 0.976168 -8.19251 6.8
      vertex 1.2 -8.07846 2.8
      vertex 0.976168 -8.19251 2.8
    endloop
  endfacet
  facet normal 0.258819 0.965926 -0
    outer loop
      vertex -0.498987 -8.34755 2.8
      vertex -0.74164 -8.28254 6.8
      vertex -0.498987 -8.34755 6.8
    endloop
  endfacet
  facet normal 0.258819 0.965926 0
    outer loop
      vertex -0.74164 -8.28254 6.8
      vertex -0.498987 -8.34755 2.8
      vertex -0.74164 -8.28254 2.8
    endloop
  endfacet
  facet normal 0.0523357 0.99863 -0
    outer loop
      vertex 0 -8.4 2.8
      vertex -0.250868 -8.38685 6.8
      vertex 0 -8.4 6.8
    endloop
  endfacet
  facet normal 0.0523357 0.99863 0
    outer loop
      vertex -0.250868 -8.38685 6.8
      vertex 0 -8.4 2.8
      vertex -0.250868 -8.38685 2.8
    endloop
  endfacet
  facet normal 0.45399 0.891007 -0
    outer loop
      vertex -0.976168 -8.19251 2.8
      vertex -1.2 -8.07846 6.8
      vertex -0.976168 -8.19251 6.8
    endloop
  endfacet
  facet normal 0.45399 0.891007 0
    outer loop
      vertex -1.2 -8.07846 6.8
      vertex -0.976168 -8.19251 2.8
      vertex -1.2 -8.07846 2.8
    endloop
  endfacet
  facet normal 0.54464 0.83867 -0
    outer loop
      vertex -1.2 -8.07846 2.8
      vertex -1.41068 -7.94164 6.8
      vertex -1.2 -8.07846 6.8
    endloop
  endfacet
  facet normal 0.54464 0.83867 0
    outer loop
      vertex -1.41068 -7.94164 6.8
      vertex -1.2 -8.07846 2.8
      vertex -1.41068 -7.94164 2.8
    endloop
  endfacet
  facet normal 0.629319 0.777147 -0
    outer loop
      vertex -1.41068 -7.94164 2.8
      vertex -1.60591 -7.78355 6.8
      vertex -1.41068 -7.94164 6.8
    endloop
  endfacet
  facet normal 0.629319 0.777147 0
    outer loop
      vertex -1.60591 -7.78355 6.8
      vertex -1.41068 -7.94164 2.8
      vertex -1.60591 -7.78355 2.8
    endloop
  endfacet
  facet normal -0.99863 -0.0523357 0
    outer loop
      vertex 2.4 6 2.8
      vertex 2.38685 6.25087 6.8
      vertex 2.38685 6.25087 2.8
    endloop
  endfacet
  facet normal -0.99863 -0.0523357 0
    outer loop
      vertex 2.38685 6.25087 6.8
      vertex 2.4 6 2.8
      vertex 2.4 6 6.8
    endloop
  endfacet
  facet normal 0.99863 -0.0523357 0
    outer loop
      vertex -2.4 6 6.8
      vertex -2.38685 6.25087 2.8
      vertex -2.38685 6.25087 6.8
    endloop
  endfacet
  facet normal 0.99863 -0.0523357 0
    outer loop
      vertex -2.38685 6.25087 2.8
      vertex -2.4 6 6.8
      vertex -2.4 6 2.8
    endloop
  endfacet
  facet normal 0.0523357 -0.99863 0
    outer loop
      vertex -0.250868 8.38685 2.8
      vertex 0 8.4 6.8
      vertex -0.250868 8.38685 6.8
    endloop
  endfacet
  facet normal 0.0523357 -0.99863 0
    outer loop
      vertex 0 8.4 6.8
      vertex -0.250868 8.38685 2.8
      vertex 0 8.4 2.8
    endloop
  endfacet
  facet normal -0.0523357 0.99863 0
    outer loop
      vertex 0.250868 3.61315 2.8
      vertex 0 3.6 6.8
      vertex 0.250868 3.61315 6.8
    endloop
  endfacet
  facet normal -0.0523357 0.99863 0
    outer loop
      vertex 0 3.6 6.8
      vertex 0.250868 3.61315 2.8
      vertex 0 3.6 2.8
    endloop
  endfacet
  facet normal -0.707107 -0.707107 0
    outer loop
      vertex 1.78355 7.60591 2.8
      vertex 1.60591 7.78355 6.8
      vertex 1.60591 7.78355 2.8
    endloop
  endfacet
  facet normal -0.707107 -0.707107 0
    outer loop
      vertex 1.60591 7.78355 6.8
      vertex 1.78355 7.60591 2.8
      vertex 1.78355 7.60591 6.8
    endloop
  endfacet
  facet normal 0.707107 -0.707107 0
    outer loop
      vertex -1.78355 7.60591 6.8
      vertex -1.60591 7.78355 2.8
      vertex -1.60591 7.78355 6.8
    endloop
  endfacet
  facet normal 0.707107 -0.707107 0
    outer loop
      vertex -1.60591 7.78355 2.8
      vertex -1.78355 7.60591 6.8
      vertex -1.78355 7.60591 2.8
    endloop
  endfacet
  facet normal 0.45399 -0.891007 0
    outer loop
      vertex -1.2 8.07846 2.8
      vertex -0.976168 8.19251 6.8
      vertex -1.2 8.07846 6.8
    endloop
  endfacet
  facet normal 0.45399 -0.891007 0
    outer loop
      vertex -0.976168 8.19251 6.8
      vertex -1.2 8.07846 2.8
      vertex -0.976168 8.19251 2.8
    endloop
  endfacet
  facet normal -0.891007 -0.45399 0
    outer loop
      vertex 2.19251 6.97617 2.8
      vertex 2.07846 7.2 6.8
      vertex 2.07846 7.2 2.8
    endloop
  endfacet
  facet normal -0.891007 -0.45399 0
    outer loop
      vertex 2.07846 7.2 6.8
      vertex 2.19251 6.97617 2.8
      vertex 2.19251 6.97617 6.8
    endloop
  endfacet
  facet normal -0.358368 -0.93358 0
    outer loop
      vertex 0.74164 8.28254 2.8
      vertex 0.976168 8.19251 6.8
      vertex 0.74164 8.28254 6.8
    endloop
  endfacet
  facet normal -0.358368 -0.93358 -0
    outer loop
      vertex 0.976168 8.19251 6.8
      vertex 0.74164 8.28254 2.8
      vertex 0.976168 8.19251 2.8
    endloop
  endfacet
  facet normal -0.54464 -0.83867 0
    outer loop
      vertex 1.2 8.07846 2.8
      vertex 1.41068 7.94164 6.8
      vertex 1.2 8.07846 6.8
    endloop
  endfacet
  facet normal -0.54464 -0.83867 -0
    outer loop
      vertex 1.41068 7.94164 6.8
      vertex 1.2 8.07846 2.8
      vertex 1.41068 7.94164 2.8
    endloop
  endfacet
  facet normal 0.93358 -0.358368 0
    outer loop
      vertex -2.28254 6.74164 6.8
      vertex -2.19251 6.97617 2.8
      vertex -2.19251 6.97617 6.8
    endloop
  endfacet
  facet normal 0.93358 -0.358368 0
    outer loop
      vertex -2.19251 6.97617 2.8
      vertex -2.28254 6.74164 6.8
      vertex -2.28254 6.74164 2.8
    endloop
  endfacet
  facet normal 0.965926 -0.258819 0
    outer loop
      vertex -2.34755 6.49899 6.8
      vertex -2.28254 6.74164 2.8
      vertex -2.28254 6.74164 6.8
    endloop
  endfacet
  facet normal 0.965926 -0.258819 0
    outer loop
      vertex -2.28254 6.74164 2.8
      vertex -2.34755 6.49899 6.8
      vertex -2.34755 6.49899 2.8
    endloop
  endfacet
  facet normal 0.258819 -0.965926 0
    outer loop
      vertex -0.74164 8.28254 2.8
      vertex -0.498987 8.34755 6.8
      vertex -0.74164 8.28254 6.8
    endloop
  endfacet
  facet normal 0.258819 -0.965926 0
    outer loop
      vertex -0.498987 8.34755 6.8
      vertex -0.74164 8.28254 2.8
      vertex -0.498987 8.34755 2.8
    endloop
  endfacet
  facet normal -0.965926 0.258819 0
    outer loop
      vertex 2.28254 5.25836 2.8
      vertex 2.34755 5.50101 6.8
      vertex 2.34755 5.50101 2.8
    endloop
  endfacet
  facet normal -0.965926 0.258819 0
    outer loop
      vertex 2.34755 5.50101 6.8
      vertex 2.28254 5.25836 2.8
      vertex 2.28254 5.25836 6.8
    endloop
  endfacet
  facet normal -0.156434 0.987688 0
    outer loop
      vertex 0.498987 3.65245 2.8
      vertex 0.250868 3.61315 6.8
      vertex 0.498987 3.65245 6.8
    endloop
  endfacet
  facet normal -0.156434 0.987688 0
    outer loop
      vertex 0.250868 3.61315 6.8
      vertex 0.498987 3.65245 2.8
      vertex 0.250868 3.61315 2.8
    endloop
  endfacet
  facet normal -0.965926 -0.258819 0
    outer loop
      vertex 2.34755 6.49899 2.8
      vertex 2.28254 6.74164 6.8
      vertex 2.28254 6.74164 2.8
    endloop
  endfacet
  facet normal -0.965926 -0.258819 0
    outer loop
      vertex 2.28254 6.74164 6.8
      vertex 2.34755 6.49899 2.8
      vertex 2.34755 6.49899 6.8
    endloop
  endfacet
  facet normal -0.987688 -0.156434 0
    outer loop
      vertex 2.38685 6.25087 2.8
      vertex 2.34755 6.49899 6.8
      vertex 2.34755 6.49899 2.8
    endloop
  endfacet
  facet normal -0.987688 -0.156434 0
    outer loop
      vertex 2.34755 6.49899 6.8
      vertex 2.38685 6.25087 2.8
      vertex 2.38685 6.25087 6.8
    endloop
  endfacet
  facet normal -0.93358 -0.358368 0
    outer loop
      vertex 2.28254 6.74164 2.8
      vertex 2.19251 6.97617 6.8
      vertex 2.19251 6.97617 2.8
    endloop
  endfacet
  facet normal -0.93358 -0.358368 0
    outer loop
      vertex 2.19251 6.97617 6.8
      vertex 2.28254 6.74164 2.8
      vertex 2.28254 6.74164 6.8
    endloop
  endfacet
  facet normal -0.777147 -0.629319 0
    outer loop
      vertex 1.94164 7.41068 2.8
      vertex 1.78355 7.60591 6.8
      vertex 1.78355 7.60591 2.8
    endloop
  endfacet
  facet normal -0.777147 -0.629319 0
    outer loop
      vertex 1.78355 7.60591 6.8
      vertex 1.94164 7.41068 2.8
      vertex 1.94164 7.41068 6.8
    endloop
  endfacet
  facet normal -0.83867 -0.54464 0
    outer loop
      vertex 2.07846 7.2 2.8
      vertex 1.94164 7.41068 6.8
      vertex 1.94164 7.41068 2.8
    endloop
  endfacet
  facet normal -0.83867 -0.54464 0
    outer loop
      vertex 1.94164 7.41068 6.8
      vertex 2.07846 7.2 2.8
      vertex 2.07846 7.2 6.8
    endloop
  endfacet
  facet normal -0.156434 -0.987688 0
    outer loop
      vertex 0.250868 8.38685 2.8
      vertex 0.498987 8.34755 6.8
      vertex 0.250868 8.38685 6.8
    endloop
  endfacet
  facet normal -0.156434 -0.987688 -0
    outer loop
      vertex 0.498987 8.34755 6.8
      vertex 0.250868 8.38685 2.8
      vertex 0.498987 8.34755 2.8
    endloop
  endfacet
  facet normal -0.258819 -0.965926 0
    outer loop
      vertex 0.498987 8.34755 2.8
      vertex 0.74164 8.28254 6.8
      vertex 0.498987 8.34755 6.8
    endloop
  endfacet
  facet normal -0.258819 -0.965926 -0
    outer loop
      vertex 0.74164 8.28254 6.8
      vertex 0.498987 8.34755 2.8
      vertex 0.74164 8.28254 2.8
    endloop
  endfacet
  facet normal -0.0523357 -0.99863 0
    outer loop
      vertex 0 8.4 2.8
      vertex 0.250868 8.38685 6.8
      vertex 0 8.4 6.8
    endloop
  endfacet
  facet normal -0.0523357 -0.99863 -0
    outer loop
      vertex 0.250868 8.38685 6.8
      vertex 0 8.4 2.8
      vertex 0.250868 8.38685 2.8
    endloop
  endfacet
  facet normal -0.45399 -0.891007 0
    outer loop
      vertex 0.976168 8.19251 2.8
      vertex 1.2 8.07846 6.8
      vertex 0.976168 8.19251 6.8
    endloop
  endfacet
  facet normal -0.45399 -0.891007 -0
    outer loop
      vertex 1.2 8.07846 6.8
      vertex 0.976168 8.19251 2.8
      vertex 1.2 8.07846 2.8
    endloop
  endfacet
  facet normal -0.629319 -0.777147 0
    outer loop
      vertex 1.41068 7.94164 2.8
      vertex 1.60591 7.78355 6.8
      vertex 1.41068 7.94164 6.8
    endloop
  endfacet
  facet normal -0.629319 -0.777147 -0
    outer loop
      vertex 1.60591 7.78355 6.8
      vertex 1.41068 7.94164 2.8
      vertex 1.60591 7.78355 2.8
    endloop
  endfacet
  facet normal 0.83867 -0.54464 0
    outer loop
      vertex -2.07846 7.2 6.8
      vertex -1.94164 7.41068 2.8
      vertex -1.94164 7.41068 6.8
    endloop
  endfacet
  facet normal 0.83867 -0.54464 0
    outer loop
      vertex -1.94164 7.41068 2.8
      vertex -2.07846 7.2 6.8
      vertex -2.07846 7.2 2.8
    endloop
  endfacet
  facet normal 0.777147 -0.629319 0
    outer loop
      vertex -1.94164 7.41068 6.8
      vertex -1.78355 7.60591 2.8
      vertex -1.78355 7.60591 6.8
    endloop
  endfacet
  facet normal 0.777147 -0.629319 0
    outer loop
      vertex -1.78355 7.60591 2.8
      vertex -1.94164 7.41068 6.8
      vertex -1.94164 7.41068 2.8
    endloop
  endfacet
  facet normal 0.891007 -0.45399 0
    outer loop
      vertex -2.19251 6.97617 6.8
      vertex -2.07846 7.2 2.8
      vertex -2.07846 7.2 6.8
    endloop
  endfacet
  facet normal 0.891007 -0.45399 0
    outer loop
      vertex -2.07846 7.2 2.8
      vertex -2.19251 6.97617 6.8
      vertex -2.19251 6.97617 2.8
    endloop
  endfacet
  facet normal 0.987688 -0.156434 0
    outer loop
      vertex -2.38685 6.25087 6.8
      vertex -2.34755 6.49899 2.8
      vertex -2.34755 6.49899 6.8
    endloop
  endfacet
  facet normal 0.987688 -0.156434 0
    outer loop
      vertex -2.34755 6.49899 2.8
      vertex -2.38685 6.25087 6.8
      vertex -2.38685 6.25087 2.8
    endloop
  endfacet
  facet normal 0.54464 -0.83867 0
    outer loop
      vertex -1.41068 7.94164 2.8
      vertex -1.2 8.07846 6.8
      vertex -1.41068 7.94164 6.8
    endloop
  endfacet
  facet normal 0.54464 -0.83867 0
    outer loop
      vertex -1.2 8.07846 6.8
      vertex -1.41068 7.94164 2.8
      vertex -1.2 8.07846 2.8
    endloop
  endfacet
  facet normal 0.629319 -0.777147 0
    outer loop
      vertex -1.60591 7.78355 2.8
      vertex -1.41068 7.94164 6.8
      vertex -1.60591 7.78355 6.8
    endloop
  endfacet
  facet normal 0.629319 -0.777147 0
    outer loop
      vertex -1.41068 7.94164 6.8
      vertex -1.60591 7.78355 2.8
      vertex -1.41068 7.94164 2.8
    endloop
  endfacet
  facet normal 0.358368 -0.93358 0
    outer loop
      vertex -0.976168 8.19251 2.8
      vertex -0.74164 8.28254 6.8
      vertex -0.976168 8.19251 6.8
    endloop
  endfacet
  facet normal 0.358368 -0.93358 0
    outer loop
      vertex -0.74164 8.28254 6.8
      vertex -0.976168 8.19251 2.8
      vertex -0.74164 8.28254 2.8
    endloop
  endfacet
  facet normal 0.156434 -0.987688 0
    outer loop
      vertex -0.498987 8.34755 2.8
      vertex -0.250868 8.38685 6.8
      vertex -0.498987 8.34755 6.8
    endloop
  endfacet
  facet normal 0.156434 -0.987688 0
    outer loop
      vertex -0.250868 8.38685 6.8
      vertex -0.498987 8.34755 2.8
      vertex -0.250868 8.38685 2.8
    endloop
  endfacet
  facet normal -0.54464 0.83867 0
    outer loop
      vertex 1.41068 4.05836 2.8
      vertex 1.2 3.92154 6.8
      vertex 1.41068 4.05836 6.8
    endloop
  endfacet
  facet normal -0.54464 0.83867 0
    outer loop
      vertex 1.2 3.92154 6.8
      vertex 1.41068 4.05836 2.8
      vertex 1.2 3.92154 2.8
    endloop
  endfacet
  facet normal -0.707107 0.707107 0
    outer loop
      vertex 1.60591 4.21645 2.8
      vertex 1.78355 4.39409 6.8
      vertex 1.78355 4.39409 2.8
    endloop
  endfacet
  facet normal -0.707107 0.707107 0
    outer loop
      vertex 1.78355 4.39409 6.8
      vertex 1.60591 4.21645 2.8
      vertex 1.60591 4.21645 6.8
    endloop
  endfacet
  facet normal -0.987688 0.156434 0
    outer loop
      vertex 2.34755 5.50101 2.8
      vertex 2.38685 5.74913 6.8
      vertex 2.38685 5.74913 2.8
    endloop
  endfacet
  facet normal -0.987688 0.156434 0
    outer loop
      vertex 2.38685 5.74913 6.8
      vertex 2.34755 5.50101 2.8
      vertex 2.34755 5.50101 6.8
    endloop
  endfacet
  facet normal -0.99863 0.0523357 0
    outer loop
      vertex 2.38685 5.74913 2.8
      vertex 2.4 6 6.8
      vertex 2.4 6 2.8
    endloop
  endfacet
  facet normal -0.99863 0.0523357 0
    outer loop
      vertex 2.4 6 6.8
      vertex 2.38685 5.74913 2.8
      vertex 2.38685 5.74913 6.8
    endloop
  endfacet
  facet normal -0.891007 0.45399 0
    outer loop
      vertex 2.07846 4.8 2.8
      vertex 2.19251 5.02383 6.8
      vertex 2.19251 5.02383 2.8
    endloop
  endfacet
  facet normal -0.891007 0.45399 0
    outer loop
      vertex 2.19251 5.02383 6.8
      vertex 2.07846 4.8 2.8
      vertex 2.07846 4.8 6.8
    endloop
  endfacet
  facet normal -0.777147 0.629319 0
    outer loop
      vertex 1.78355 4.39409 2.8
      vertex 1.94164 4.58932 6.8
      vertex 1.94164 4.58932 2.8
    endloop
  endfacet
  facet normal -0.777147 0.629319 0
    outer loop
      vertex 1.94164 4.58932 6.8
      vertex 1.78355 4.39409 2.8
      vertex 1.78355 4.39409 6.8
    endloop
  endfacet
  facet normal 0.777147 0.629319 0
    outer loop
      vertex -1.78355 4.39409 6.8
      vertex -1.94164 4.58932 2.8
      vertex -1.94164 4.58932 6.8
    endloop
  endfacet
  facet normal 0.777147 0.629319 0
    outer loop
      vertex -1.94164 4.58932 2.8
      vertex -1.78355 4.39409 6.8
      vertex -1.78355 4.39409 2.8
    endloop
  endfacet
  facet normal 0.891007 0.45399 0
    outer loop
      vertex -2.07846 4.8 6.8
      vertex -2.19251 5.02383 2.8
      vertex -2.19251 5.02383 6.8
    endloop
  endfacet
  facet normal 0.891007 0.45399 0
    outer loop
      vertex -2.19251 5.02383 2.8
      vertex -2.07846 4.8 6.8
      vertex -2.07846 4.8 2.8
    endloop
  endfacet
  facet normal 0.965926 0.258819 0
    outer loop
      vertex -2.28254 5.25836 6.8
      vertex -2.34755 5.50101 2.8
      vertex -2.34755 5.50101 6.8
    endloop
  endfacet
  facet normal 0.965926 0.258819 0
    outer loop
      vertex -2.34755 5.50101 2.8
      vertex -2.28254 5.25836 6.8
      vertex -2.28254 5.25836 2.8
    endloop
  endfacet
  facet normal -0.358368 0.93358 0
    outer loop
      vertex 0.976168 3.80749 2.8
      vertex 0.74164 3.71746 6.8
      vertex 0.976168 3.80749 6.8
    endloop
  endfacet
  facet normal -0.358368 0.93358 0
    outer loop
      vertex 0.74164 3.71746 6.8
      vertex 0.976168 3.80749 2.8
      vertex 0.74164 3.71746 2.8
    endloop
  endfacet
  facet normal -0.258819 0.965926 0
    outer loop
      vertex 0.74164 3.71746 2.8
      vertex 0.498987 3.65245 6.8
      vertex 0.74164 3.71746 6.8
    endloop
  endfacet
  facet normal -0.258819 0.965926 0
    outer loop
      vertex 0.498987 3.65245 6.8
      vertex 0.74164 3.71746 2.8
      vertex 0.498987 3.65245 2.8
    endloop
  endfacet
  facet normal -0.629319 0.777147 0
    outer loop
      vertex 1.60591 4.21645 2.8
      vertex 1.41068 4.05836 6.8
      vertex 1.60591 4.21645 6.8
    endloop
  endfacet
  facet normal -0.629319 0.777147 0
    outer loop
      vertex 1.41068 4.05836 6.8
      vertex 1.60591 4.21645 2.8
      vertex 1.41068 4.05836 2.8
    endloop
  endfacet
  facet normal -0.93358 0.358368 0
    outer loop
      vertex 2.19251 5.02383 2.8
      vertex 2.28254 5.25836 6.8
      vertex 2.28254 5.25836 2.8
    endloop
  endfacet
  facet normal -0.93358 0.358368 0
    outer loop
      vertex 2.28254 5.25836 6.8
      vertex 2.19251 5.02383 2.8
      vertex 2.19251 5.02383 6.8
    endloop
  endfacet
  facet normal -0.83867 0.54464 0
    outer loop
      vertex 1.94164 4.58932 2.8
      vertex 2.07846 4.8 6.8
      vertex 2.07846 4.8 2.8
    endloop
  endfacet
  facet normal -0.83867 0.54464 0
    outer loop
      vertex 2.07846 4.8 6.8
      vertex 1.94164 4.58932 2.8
      vertex 1.94164 4.58932 6.8
    endloop
  endfacet
  facet normal 0.156434 0.987688 -0
    outer loop
      vertex -0.250868 3.61315 2.8
      vertex -0.498987 3.65245 6.8
      vertex -0.250868 3.61315 6.8
    endloop
  endfacet
  facet normal 0.156434 0.987688 0
    outer loop
      vertex -0.498987 3.65245 6.8
      vertex -0.250868 3.61315 2.8
      vertex -0.498987 3.65245 2.8
    endloop
  endfacet
  facet normal 0.358368 0.93358 -0
    outer loop
      vertex -0.74164 3.71746 2.8
      vertex -0.976168 3.80749 6.8
      vertex -0.74164 3.71746 6.8
    endloop
  endfacet
  facet normal 0.358368 0.93358 0
    outer loop
      vertex -0.976168 3.80749 6.8
      vertex -0.74164 3.71746 2.8
      vertex -0.976168 3.80749 2.8
    endloop
  endfacet
  facet normal 0.707107 0.707107 0
    outer loop
      vertex -1.60591 4.21645 6.8
      vertex -1.78355 4.39409 2.8
      vertex -1.78355 4.39409 6.8
    endloop
  endfacet
  facet normal 0.707107 0.707107 0
    outer loop
      vertex -1.78355 4.39409 2.8
      vertex -1.60591 4.21645 6.8
      vertex -1.60591 4.21645 2.8
    endloop
  endfacet
  facet normal 0.83867 0.54464 0
    outer loop
      vertex -1.94164 4.58932 6.8
      vertex -2.07846 4.8 2.8
      vertex -2.07846 4.8 6.8
    endloop
  endfacet
  facet normal 0.83867 0.54464 0
    outer loop
      vertex -2.07846 4.8 2.8
      vertex -1.94164 4.58932 6.8
      vertex -1.94164 4.58932 2.8
    endloop
  endfacet
  facet normal 0.93358 0.358368 0
    outer loop
      vertex -2.19251 5.02383 6.8
      vertex -2.28254 5.25836 2.8
      vertex -2.28254 5.25836 6.8
    endloop
  endfacet
  facet normal 0.93358 0.358368 0
    outer loop
      vertex -2.28254 5.25836 2.8
      vertex -2.19251 5.02383 6.8
      vertex -2.19251 5.02383 2.8
    endloop
  endfacet
  facet normal 0.987688 0.156434 0
    outer loop
      vertex -2.34755 5.50101 6.8
      vertex -2.38685 5.74913 2.8
      vertex -2.38685 5.74913 6.8
    endloop
  endfacet
  facet normal 0.987688 0.156434 0
    outer loop
      vertex -2.38685 5.74913 2.8
      vertex -2.34755 5.50101 6.8
      vertex -2.34755 5.50101 2.8
    endloop
  endfacet
  facet normal 0.99863 0.0523357 0
    outer loop
      vertex -2.38685 5.74913 6.8
      vertex -2.4 6 2.8
      vertex -2.4 6 6.8
    endloop
  endfacet
  facet normal 0.99863 0.0523357 0
    outer loop
      vertex -2.4 6 2.8
      vertex -2.38685 5.74913 6.8
      vertex -2.38685 5.74913 2.8
    endloop
  endfacet
  facet normal -0.45399 0.891007 0
    outer loop
      vertex 1.2 3.92154 2.8
      vertex 0.976168 3.80749 6.8
      vertex 1.2 3.92154 6.8
    endloop
  endfacet
  facet normal -0.45399 0.891007 0
    outer loop
      vertex 0.976168 3.80749 6.8
      vertex 1.2 3.92154 2.8
      vertex 0.976168 3.80749 2.8
    endloop
  endfacet
  facet normal 0.258819 0.965926 -0
    outer loop
      vertex -0.498987 3.65245 2.8
      vertex -0.74164 3.71746 6.8
      vertex -0.498987 3.65245 6.8
    endloop
  endfacet
  facet normal 0.258819 0.965926 0
    outer loop
      vertex -0.74164 3.71746 6.8
      vertex -0.498987 3.65245 2.8
      vertex -0.74164 3.71746 2.8
    endloop
  endfacet
  facet normal 0.0523357 0.99863 -0
    outer loop
      vertex 0 3.6 2.8
      vertex -0.250868 3.61315 6.8
      vertex 0 3.6 6.8
    endloop
  endfacet
  facet normal 0.0523357 0.99863 0
    outer loop
      vertex -0.250868 3.61315 6.8
      vertex 0 3.6 2.8
      vertex -0.250868 3.61315 2.8
    endloop
  endfacet
  facet normal 0.45399 0.891007 -0
    outer loop
      vertex -0.976168 3.80749 2.8
      vertex -1.2 3.92154 6.8
      vertex -0.976168 3.80749 6.8
    endloop
  endfacet
  facet normal 0.45399 0.891007 0
    outer loop
      vertex -1.2 3.92154 6.8
      vertex -0.976168 3.80749 2.8
      vertex -1.2 3.92154 2.8
    endloop
  endfacet
  facet normal 0.54464 0.83867 -0
    outer loop
      vertex -1.2 3.92154 2.8
      vertex -1.41068 4.05836 6.8
      vertex -1.2 3.92154 6.8
    endloop
  endfacet
  facet normal 0.54464 0.83867 0
    outer loop
      vertex -1.41068 4.05836 6.8
      vertex -1.2 3.92154 2.8
      vertex -1.41068 4.05836 2.8
    endloop
  endfacet
  facet normal 0.629319 0.777147 -0
    outer loop
      vertex -1.41068 4.05836 2.8
      vertex -1.60591 4.21645 6.8
      vertex -1.41068 4.05836 6.8
    endloop
  endfacet
  facet normal 0.629319 0.777147 0
    outer loop
      vertex -1.60591 4.21645 6.8
      vertex -1.41068 4.05836 2.8
      vertex -1.60591 4.21645 2.8
    endloop
  endfacet
  facet normal -1 0 0
    outer loop
      vertex -11 -10 2.8
      vertex -11 10 6.8
      vertex -11 10 2.8
    endloop
  endfacet
  facet normal -1 -0 0
    outer loop
      vertex -11 10 6.8
      vertex -11 -10 2.8
      vertex -11 -10 6.8
    endloop
  endfacet
  facet normal 0 0 1
    outer loop
      vertex 2.28254 5.25836 6.8
      vertex 11 10 6.8
      vertex 2.34755 5.50101 6.8
    endloop
  endfacet
  facet normal 0 0 1
    outer loop
      vertex 11 -10 6.8
      vertex 2.38685 -5.74913 6.8
      vertex 2.4 -6 6.8
    endloop
  endfacet
  facet normal 0 0 1
    outer loop
      vertex 2.19251 5.02383 6.8
      vertex 11 10 6.8
      vertex 2.28254 5.25836 6.8
    endloop
  endfacet
  facet normal 0 0 1
    outer loop
      vertex 11 -10 6.8
      vertex 2.34755 -5.50101 6.8
      vertex 2.38685 -5.74913 6.8
    endloop
  endfacet
  facet normal 0 0 1
    outer loop
      vertex 2.07846 4.8 6.8
      vertex 11 10 6.8
      vertex 2.19251 5.02383 6.8
    endloop
  endfacet
  facet normal 0 0 1
    outer loop
      vertex 11 -10 6.8
      vertex 2.28254 -5.25836 6.8
      vertex 2.34755 -5.50101 6.8
    endloop
  endfacet
  facet normal 0 0 1
    outer loop
      vertex 11 10 6.8
      vertex 2.07846 4.8 6.8
      vertex 11 -10 6.8
    endloop
  endfacet
  facet normal 0 0 1
    outer loop
      vertex 11 -10 6.8
      vertex 2.19251 -5.02383 6.8
      vertex 2.28254 -5.25836 6.8
    endloop
  endfacet
  facet normal -0 0 1
    outer loop
      vertex 2.07846 -4.8 6.8
      vertex 11 -10 6.8
      vertex 2.07846 4.8 6.8
    endloop
  endfacet
  facet normal 0 0 1
    outer loop
      vertex 11 -10 6.8
      vertex 2.07846 -4.8 6.8
      vertex 2.19251 -5.02383 6.8
    endloop
  endfacet
  facet normal -0 0 1
    outer loop
      vertex 1.94164 4.58932 6.8
      vertex 2.07846 -4.8 6.8
      vertex 2.07846 4.8 6.8
    endloop
  endfacet
  facet normal 0 0 1
    outer loop
      vertex 1.94164 4.58932 6.8
      vertex 1.94164 -4.58932 6.8
      vertex 2.07846 -4.8 6.8
    endloop
  endfacet
  facet normal -0 0 1
    outer loop
      vertex 1.78355 4.39409 6.8
      vertex 1.94164 -4.58932 6.8
      vertex 1.94164 4.58932 6.8
    endloop
  endfacet
  facet normal 0 0 1
    outer loop
      vertex 1.78355 4.39409 6.8
      vertex 1.78355 -4.39409 6.8
      vertex 1.94164 -4.58932 6.8
    endloop
  endfacet
  facet normal -0 0 1
    outer loop
      vertex 1.60591 4.21645 6.8
      vertex 1.78355 -4.39409 6.8
      vertex 1.78355 4.39409 6.8
    endloop
  endfacet
  facet normal 0 0 1
    outer loop
      vertex 1.60591 4.21645 6.8
      vertex 1.60591 -4.21645 6.8
      vertex 1.78355 -4.39409 6.8
    endloop
  endfacet
  facet normal -0 0 1
    outer loop
      vertex 1.41068 4.05836 6.8
      vertex 1.60591 -4.21645 6.8
      vertex 1.60591 4.21645 6.8
    endloop
  endfacet
  facet normal 0 0 1
    outer loop
      vertex 1.41068 4.05836 6.8
      vertex 1.41068 -4.05836 6.8
      vertex 1.60591 -4.21645 6.8
    endloop
  endfacet
  facet normal -0 0 1
    outer loop
      vertex 1.2 3.92154 6.8
      vertex 1.41068 -4.05836 6.8
      vertex 1.41068 4.05836 6.8
    endloop
  endfacet
  facet normal 0 0 1
    outer loop
      vertex 1.2 3.92154 6.8
      vertex 1.2 -3.92154 6.8
      vertex 1.41068 -4.05836 6.8
    endloop
  endfacet
  facet normal -0 0 1
    outer loop
      vertex 0.976168 3.80749 6.8
      vertex 1.2 -3.92154 6.8
      vertex 1.2 3.92154 6.8
    endloop
  endfacet
  facet normal 0 0 1
    outer loop
      vertex 0.976168 3.80749 6.8
      vertex 0.976168 -3.80749 6.8
      vertex 1.2 -3.92154 6.8
    endloop
  endfacet
  facet normal -0 0 1
    outer loop
      vertex 0.74164 3.71746 6.8
      vertex 0.976168 -3.80749 6.8
      vertex 0.976168 3.80749 6.8
    endloop
  endfacet
  facet normal 0 0 1
    outer loop
      vertex 0.74164 3.71746 6.8
      vertex 0.74164 -3.71746 6.8
      vertex 0.976168 -3.80749 6.8
    endloop
  endfacet
  facet normal -0 0 1
    outer loop
      vertex 0.498987 3.65245 6.8
      vertex 0.74164 -3.71746 6.8
      vertex 0.74164 3.71746 6.8
    endloop
  endfacet
  facet normal 0 0 1
    outer loop
      vertex 0.498987 3.65245 6.8
      vertex 0.498987 -3.65245 6.8
      vertex 0.74164 -3.71746 6.8
    endloop
  endfacet
  facet normal -0 0 1
    outer loop
      vertex 0.250868 3.61315 6.8
      vertex 0.498987 -3.65245 6.8
      vertex 0.498987 3.65245 6.8
    endloop
  endfacet
  facet normal 0 0 1
    outer loop
      vertex 0.250868 3.61315 6.8
      vertex 0.250868 -3.61315 6.8
      vertex 0.498987 -3.65245 6.8
    endloop
  endfacet
  facet normal -0 0 1
    outer loop
      vertex 0 3.6 6.8
      vertex 0.250868 -3.61315 6.8
      vertex 0.250868 3.61315 6.8
    endloop
  endfacet
  facet normal 0 0 1
    outer loop
      vertex 0 3.6 6.8
      vertex 0 -3.6 6.8
      vertex 0.250868 -3.61315 6.8
    endloop
  endfacet
  facet normal 0 0 1
    outer loop
      vertex -0.250868 3.61315 6.8
      vertex 0 -3.6 6.8
      vertex 0 3.6 6.8
    endloop
  endfacet
  facet normal 0 0 1
    outer loop
      vertex -0.250868 3.61315 6.8
      vertex -0.250868 -3.61315 6.8
      vertex 0 -3.6 6.8
    endloop
  endfacet
  facet normal 0 0 1
    outer loop
      vertex -0.498987 3.65245 6.8
      vertex -0.250868 -3.61315 6.8
      vertex -0.250868 3.61315 6.8
    endloop
  endfacet
  facet normal 0 0 1
    outer loop
      vertex -0.498987 3.65245 6.8
      vertex -0.498987 -3.65245 6.8
      vertex -0.250868 -3.61315 6.8
    endloop
  endfacet
  facet normal 0 0 1
    outer loop
      vertex -0.74164 3.71746 6.8
      vertex -0.498987 -3.65245 6.8
      vertex -0.498987 3.65245 6.8
    endloop
  endfacet
  facet normal 0 0 1
    outer loop
      vertex -0.74164 3.71746 6.8
      vertex -0.74164 -3.71746 6.8
      vertex -0.498987 -3.65245 6.8
    endloop
  endfacet
  facet normal 0 0 1
    outer loop
      vertex -0.976168 3.80749 6.8
      vertex -0.74164 -3.71746 6.8
      vertex -0.74164 3.71746 6.8
    endloop
  endfacet
  facet normal 0 0 1
    outer loop
      vertex -0.976168 3.80749 6.8
      vertex -0.976168 -3.80749 6.8
      vertex -0.74164 -3.71746 6.8
    endloop
  endfacet
  facet normal 0 0 1
    outer loop
      vertex -1.2 3.92154 6.8
      vertex -0.976168 -3.80749 6.8
      vertex -0.976168 3.80749 6.8
    endloop
  endfacet
  facet normal 0 0 1
    outer loop
      vertex -1.2 3.92154 6.8
      vertex -1.2 -3.92154 6.8
      vertex -0.976168 -3.80749 6.8
    endloop
  endfacet
  facet normal 0 0 1
    outer loop
      vertex -1.41068 4.05836 6.8
      vertex -1.2 -3.92154 6.8
      vertex -1.2 3.92154 6.8
    endloop
  endfacet
  facet normal 0 0 1
    outer loop
      vertex -1.41068 4.05836 6.8
      vertex -1.41068 -4.05836 6.8
      vertex -1.2 -3.92154 6.8
    endloop
  endfacet
  facet normal 0 0 1
    outer loop
      vertex -1.60591 4.21645 6.8
      vertex -1.41068 -4.05836 6.8
      vertex -1.41068 4.05836 6.8
    endloop
  endfacet
  facet normal 0 0 1
    outer loop
      vertex -1.60591 4.21645 6.8
      vertex -1.60591 -4.21645 6.8
      vertex -1.41068 -4.05836 6.8
    endloop
  endfacet
  facet normal 0 0 1
    outer loop
      vertex -1.78355 4.39409 6.8
      vertex -1.60591 -4.21645 6.8
      vertex -1.60591 4.21645 6.8
    endloop
  endfacet
  facet normal 0 0 1
    outer loop
      vertex -1.78355 4.39409 6.8
      vertex -1.78355 -4.39409 6.8
      vertex -1.60591 -4.21645 6.8
    endloop
  endfacet
  facet normal 0 0 1
    outer loop
      vertex -1.94164 4.58932 6.8
      vertex -1.78355 -4.39409 6.8
      vertex -1.78355 4.39409 6.8
    endloop
  endfacet
  facet normal 0 0 1
    outer loop
      vertex -1.94164 4.58932 6.8
      vertex -1.94164 -4.58932 6.8
      vertex -1.78355 -4.39409 6.8
    endloop
  endfacet
  facet normal 0 0 1
    outer loop
      vertex -2.07846 4.8 6.8
      vertex -1.94164 -4.58932 6.8
      vertex -1.94164 4.58932 6.8
    endloop
  endfacet
  facet normal 0 0 1
    outer loop
      vertex -2.07846 4.8 6.8
      vertex -2.07846 -4.8 6.8
      vertex -1.94164 -4.58932 6.8
    endloop
  endfacet
  facet normal 0 0 1
    outer loop
      vertex -11 10 6.8
      vertex -2.07846 4.8 6.8
      vertex -2.19251 5.02383 6.8
    endloop
  endfacet
  facet normal 0 0 1
    outer loop
      vertex -2.07846 4.8 6.8
      vertex -11 10 6.8
      vertex -2.07846 -4.8 6.8
    endloop
  endfacet
  facet normal 0 0 1
    outer loop
      vertex -11 10 6.8
      vertex -2.19251 5.02383 6.8
      vertex -2.28254 5.25836 6.8
    endloop
  endfacet
  facet normal 0 0 1
    outer loop
      vertex -11 -10 6.8
      vertex -2.07846 -4.8 6.8
      vertex -11 10 6.8
    endloop
  endfacet
  facet normal 0 0 1
    outer loop
      vertex -11 10 6.8
      vertex -2.28254 5.25836 6.8
      vertex -2.34755 5.50101 6.8
    endloop
  endfacet
  facet normal 0 0 1
    outer loop
      vertex -2.07846 -4.8 6.8
      vertex -11 -10 6.8
      vertex -2.19251 -5.02383 6.8
    endloop
  endfacet
  facet normal 0 0 1
    outer loop
      vertex -11 10 6.8
      vertex -2.34755 5.50101 6.8
      vertex -2.38685 5.74913 6.8
    endloop
  endfacet
  facet normal 0 0 1
    outer loop
      vertex -2.19251 -5.02383 6.8
      vertex -11 -10 6.8
      vertex -2.28254 -5.25836 6.8
    endloop
  endfacet
  facet normal 0 0 1
    outer loop
      vertex -11 10 6.8
      vertex -2.38685 5.74913 6.8
      vertex -2.4 6 6.8
    endloop
  endfacet
  facet normal 0 0 1
    outer loop
      vertex -2.28254 -5.25836 6.8
      vertex -11 -10 6.8
      vertex -2.34755 -5.50101 6.8
    endloop
  endfacet
  facet normal 0 0 1
    outer loop
      vertex 2.38685 5.74913 6.8
      vertex 11 10 6.8
      vertex 2.4 6 6.8
    endloop
  endfacet
  facet normal 0 0 1
    outer loop
      vertex 11 10 6.8
      vertex 2.38685 6.25087 6.8
      vertex 2.4 6 6.8
    endloop
  endfacet
  facet normal 0 0 1
    outer loop
      vertex 11 10 6.8
      vertex 2.34755 6.49899 6.8
      vertex 2.38685 6.25087 6.8
    endloop
  endfacet
  facet normal 0 0 1
    outer loop
      vertex 11 10 6.8
      vertex 2.28254 6.74164 6.8
      vertex 2.34755 6.49899 6.8
    endloop
  endfacet
  facet normal 0 0 1
    outer loop
      vertex 11 10 6.8
      vertex 2.19251 6.97617 6.8
      vertex 2.28254 6.74164 6.8
    endloop
  endfacet
  facet normal 0 0 1
    outer loop
      vertex 11 10 6.8
      vertex 2.07846 7.2 6.8
      vertex 2.19251 6.97617 6.8
    endloop
  endfacet
  facet normal 0 0 1
    outer loop
      vertex 11 10 6.8
      vertex 1.94164 7.41068 6.8
      vertex 2.07846 7.2 6.8
    endloop
  endfacet
  facet normal 0 0 1
    outer loop
      vertex 11 10 6.8
      vertex 1.78355 7.60591 6.8
      vertex 1.94164 7.41068 6.8
    endloop
  endfacet
  facet normal 0 0 1
    outer loop
      vertex 11 10 6.8
      vertex 1.60591 7.78355 6.8
      vertex 1.78355 7.60591 6.8
    endloop
  endfacet
  facet normal 0 0 1
    outer loop
      vertex 11 10 6.8
      vertex 1.41068 7.94164 6.8
      vertex 1.60591 7.78355 6.8
    endloop
  endfacet
  facet normal 0 0 1
    outer loop
      vertex 11 10 6.8
      vertex 1.2 8.07846 6.8
      vertex 1.41068 7.94164 6.8
    endloop
  endfacet
  facet normal 0 0 1
    outer loop
      vertex 11 10 6.8
      vertex 0.976168 8.19251 6.8
      vertex 1.2 8.07846 6.8
    endloop
  endfacet
  facet normal 0 0 1
    outer loop
      vertex 11 10 6.8
      vertex 0.74164 8.28254 6.8
      vertex 0.976168 8.19251 6.8
    endloop
  endfacet
  facet normal 0 0 1
    outer loop
      vertex 11 10 6.8
      vertex 0.498987 8.34755 6.8
      vertex 0.74164 8.28254 6.8
    endloop
  endfacet
  facet normal 0 0 1
    outer loop
      vertex 11 10 6.8
      vertex 0.250868 8.38685 6.8
      vertex 0.498987 8.34755 6.8
    endloop
  endfacet
  facet normal 0 0 1
    outer loop
      vertex 11 10 6.8
      vertex 0 8.4 6.8
      vertex 0.250868 8.38685 6.8
    endloop
  endfacet
  facet normal -0 0 1
    outer loop
      vertex -11 10 6.8
      vertex 0 8.4 6.8
      vertex 11 10 6.8
    endloop
  endfacet
  facet normal 0 0 1
    outer loop
      vertex -2.34755 -5.50101 6.8
      vertex -11 -10 6.8
      vertex -2.38685 -5.74913 6.8
    endloop
  endfacet
  facet normal 0 0 1
    outer loop
      vertex -2.38685 6.25087 6.8
      vertex -11 10 6.8
      vertex -2.4 6 6.8
    endloop
  endfacet
  facet normal 0 0 1
    outer loop
      vertex -2.34755 6.49899 6.8
      vertex -11 10 6.8
      vertex -2.38685 6.25087 6.8
    endloop
  endfacet
  facet normal 0 0 1
    outer loop
      vertex -2.28254 6.74164 6.8
      vertex -11 10 6.8
      vertex -2.34755 6.49899 6.8
    endloop
  endfacet
  facet normal 0 0 1
    outer loop
      vertex -2.19251 6.97617 6.8
      vertex -11 10 6.8
      vertex -2.28254 6.74164 6.8
    endloop
  endfacet
  facet normal 0 0 1
    outer loop
      vertex -2.07846 7.2 6.8
      vertex -11 10 6.8
      vertex -2.19251 6.97617 6.8
    endloop
  endfacet
  facet normal 0 0 1
    outer loop
      vertex -1.94164 7.41068 6.8
      vertex -11 10 6.8
      vertex -2.07846 7.2 6.8
    endloop
  endfacet
  facet normal 0 0 1
    outer loop
      vertex -1.78355 7.60591 6.8
      vertex -11 10 6.8
      vertex -1.94164 7.41068 6.8
    endloop
  endfacet
  facet normal 0 0 1
    outer loop
      vertex -1.60591 7.78355 6.8
      vertex -11 10 6.8
      vertex -1.78355 7.60591 6.8
    endloop
  endfacet
  facet normal 0 0 1
    outer loop
      vertex -1.41068 7.94164 6.8
      vertex -11 10 6.8
      vertex -1.60591 7.78355 6.8
    endloop
  endfacet
  facet normal 0 0 1
    outer loop
      vertex -1.2 8.07846 6.8
      vertex -11 10 6.8
      vertex -1.41068 7.94164 6.8
    endloop
  endfacet
  facet normal 0 0 1
    outer loop
      vertex -0.976168 8.19251 6.8
      vertex -11 10 6.8
      vertex -1.2 8.07846 6.8
    endloop
  endfacet
  facet normal 0 0 1
    outer loop
      vertex -0.74164 8.28254 6.8
      vertex -11 10 6.8
      vertex -0.976168 8.19251 6.8
    endloop
  endfacet
  facet normal 0 0 1
    outer loop
      vertex -0.498987 8.34755 6.8
      vertex -11 10 6.8
      vertex -0.74164 8.28254 6.8
    endloop
  endfacet
  facet normal 0 0 1
    outer loop
      vertex -0.250868 8.38685 6.8
      vertex -11 10 6.8
      vertex -0.498987 8.34755 6.8
    endloop
  endfacet
  facet normal 0 0 1
    outer loop
      vertex 0 8.4 6.8
      vertex -11 10 6.8
      vertex -0.250868 8.38685 6.8
    endloop
  endfacet
  facet normal 0 0 1
    outer loop
      vertex 2.34755 5.50101 6.8
      vertex 11 10 6.8
      vertex 2.38685 5.74913 6.8
    endloop
  endfacet
  facet normal -0 0 1
    outer loop
      vertex 2.38685 -6.25087 6.8
      vertex 11 -10 6.8
      vertex 2.4 -6 6.8
    endloop
  endfacet
  facet normal -0 0 1
    outer loop
      vertex 2.34755 -6.49899 6.8
      vertex 11 -10 6.8
      vertex 2.38685 -6.25087 6.8
    endloop
  endfacet
  facet normal -0 0 1
    outer loop
      vertex 2.28254 -6.74164 6.8
      vertex 11 -10 6.8
      vertex 2.34755 -6.49899 6.8
    endloop
  endfacet
  facet normal -0 0 1
    outer loop
      vertex 2.19251 -6.97617 6.8
      vertex 11 -10 6.8
      vertex 2.28254 -6.74164 6.8
    endloop
  endfacet
  facet normal -0 0 1
    outer loop
      vertex 2.07846 -7.2 6.8
      vertex 11 -10 6.8
      vertex 2.19251 -6.97617 6.8
    endloop
  endfacet
  facet normal -0 0 1
    outer loop
      vertex 1.94164 -7.41068 6.8
      vertex 11 -10 6.8
      vertex 2.07846 -7.2 6.8
    endloop
  endfacet
  facet normal -0 0 1
    outer loop
      vertex 1.78355 -7.60591 6.8
      vertex 11 -10 6.8
      vertex 1.94164 -7.41068 6.8
    endloop
  endfacet
  facet normal -0 0 1
    outer loop
      vertex 1.60591 -7.78355 6.8
      vertex 11 -10 6.8
      vertex 1.78355 -7.60591 6.8
    endloop
  endfacet
  facet normal -0 0 1
    outer loop
      vertex 1.41068 -7.94164 6.8
      vertex 11 -10 6.8
      vertex 1.60591 -7.78355 6.8
    endloop
  endfacet
  facet normal -0 0 1
    outer loop
      vertex 1.2 -8.07846 6.8
      vertex 11 -10 6.8
      vertex 1.41068 -7.94164 6.8
    endloop
  endfacet
  facet normal -0 0 1
    outer loop
      vertex 0.976168 -8.19251 6.8
      vertex 11 -10 6.8
      vertex 1.2 -8.07846 6.8
    endloop
  endfacet
  facet normal -0 0 1
    outer loop
      vertex 0.74164 -8.28254 6.8
      vertex 11 -10 6.8
      vertex 0.976168 -8.19251 6.8
    endloop
  endfacet
  facet normal -0 0 1
    outer loop
      vertex 0.498987 -8.34755 6.8
      vertex 11 -10 6.8
      vertex 0.74164 -8.28254 6.8
    endloop
  endfacet
  facet normal -0 0 1
    outer loop
      vertex 0.250868 -8.38685 6.8
      vertex 11 -10 6.8
      vertex 0.498987 -8.34755 6.8
    endloop
  endfacet
  facet normal -0 0 1
    outer loop
      vertex 0 -8.4 6.8
      vertex 11 -10 6.8
      vertex 0.250868 -8.38685 6.8
    endloop
  endfacet
  facet normal 0 0 1
    outer loop
      vertex -11 -10 6.8
      vertex 0 -8.4 6.8
      vertex -0.250868 -8.38685 6.8
    endloop
  endfacet
  facet normal 0 0 1
    outer loop
      vertex -2.38685 -5.74913 6.8
      vertex -11 -10 6.8
      vertex -2.4 -6 6.8
    endloop
  endfacet
  facet normal 0 0 1
    outer loop
      vertex -2.4 -6 6.8
      vertex -11 -10 6.8
      vertex -2.38685 -6.25087 6.8
    endloop
  endfacet
  facet normal 0 0 1
    outer loop
      vertex -2.38685 -6.25087 6.8
      vertex -11 -10 6.8
      vertex -2.34755 -6.49899 6.8
    endloop
  endfacet
  facet normal 0 0 1
    outer loop
      vertex -2.34755 -6.49899 6.8
      vertex -11 -10 6.8
      vertex -2.28254 -6.74164 6.8
    endloop
  endfacet
  facet normal 0 0 1
    outer loop
      vertex -2.28254 -6.74164 6.8
      vertex -11 -10 6.8
      vertex -2.19251 -6.97617 6.8
    endloop
  endfacet
  facet normal 0 0 1
    outer loop
      vertex 0 -8.4 6.8
      vertex -11 -10 6.8
      vertex 11 -10 6.8
    endloop
  endfacet
  facet normal 0 0 1
    outer loop
      vertex -0.498987 -8.34755 6.8
      vertex -11 -10 6.8
      vertex -0.250868 -8.38685 6.8
    endloop
  endfacet
  facet normal 0 0 1
    outer loop
      vertex -0.74164 -8.28254 6.8
      vertex -11 -10 6.8
      vertex -0.498987 -8.34755 6.8
    endloop
  endfacet
  facet normal 0 0 1
    outer loop
      vertex -0.976168 -8.19251 6.8
      vertex -11 -10 6.8
      vertex -0.74164 -8.28254 6.8
    endloop
  endfacet
  facet normal 0 0 1
    outer loop
      vertex -1.2 -8.07846 6.8
      vertex -11 -10 6.8
      vertex -0.976168 -8.19251 6.8
    endloop
  endfacet
  facet normal 0 0 1
    outer loop
      vertex -1.41068 -7.94164 6.8
      vertex -11 -10 6.8
      vertex -1.2 -8.07846 6.8
    endloop
  endfacet
  facet normal 0 0 1
    outer loop
      vertex -1.60591 -7.78355 6.8
      vertex -11 -10 6.8
      vertex -1.41068 -7.94164 6.8
    endloop
  endfacet
  facet normal 0 0 1
    outer loop
      vertex -1.78355 -7.60591 6.8
      vertex -11 -10 6.8
      vertex -1.60591 -7.78355 6.8
    endloop
  endfacet
  facet normal 0 0 1
    outer loop
      vertex -1.94164 -7.41068 6.8
      vertex -11 -10 6.8
      vertex -1.78355 -7.60591 6.8
    endloop
  endfacet
  facet normal 0 0 1
    outer loop
      vertex -2.07846 -7.2 6.8
      vertex -11 -10 6.8
      vertex -1.94164 -7.41068 6.8
    endloop
  endfacet
  facet normal 0 0 1
    outer loop
      vertex -2.19251 -6.97617 6.8
      vertex -11 -10 6.8
      vertex -2.07846 -7.2 6.8
    endloop
  endfacet
  facet normal 1 -0 0
    outer loop
      vertex 11 -10 6.8
      vertex 11 10 2.8
      vertex 11 10 6.8
    endloop
  endfacet
  facet normal 1 0 0
    outer loop
      vertex 11 10 2.8
      vertex 11 -10 6.8
      vertex 11 -10 2.8
    endloop
  endfacet
  facet normal 0 0 -1
    outer loop
      vertex 2.28254 -5.25836 2.8
      vertex 11 -10 2.8
      vertex 2.34755 -5.50101 2.8
    endloop
  endfacet
  facet normal 0 0 -1
    outer loop
      vertex 11 10 2.8
      vertex 2.38685 5.74913 2.8
      vertex 2.4 6 2.8
    endloop
  endfacet
  facet normal 0 0 -1
    outer loop
      vertex 2.19251 -5.02383 2.8
      vertex 11 -10 2.8
      vertex 2.28254 -5.25836 2.8
    endloop
  endfacet
  facet normal 0 0 -1
    outer loop
      vertex 11 10 2.8
      vertex 2.34755 5.50101 2.8
      vertex 2.38685 5.74913 2.8
    endloop
  endfacet
  facet normal 0 0 -1
    outer loop
      vertex 2.07846 -4.8 2.8
      vertex 11 -10 2.8
      vertex 2.19251 -5.02383 2.8
    endloop
  endfacet
  facet normal 0 0 -1
    outer loop
      vertex 11 10 2.8
      vertex 2.28254 5.25836 2.8
      vertex 2.34755 5.50101 2.8
    endloop
  endfacet
  facet normal 0 0 -1
    outer loop
      vertex 11 -10 2.8
      vertex 2.07846 -4.8 2.8
      vertex 11 10 2.8
    endloop
  endfacet
  facet normal 0 0 -1
    outer loop
      vertex 11 10 2.8
      vertex 2.19251 5.02383 2.8
      vertex 2.28254 5.25836 2.8
    endloop
  endfacet
  facet normal 0 0 -1
    outer loop
      vertex 2.07846 4.8 2.8
      vertex 11 10 2.8
      vertex 2.07846 -4.8 2.8
    endloop
  endfacet
  facet normal 0 0 -1
    outer loop
      vertex 11 10 2.8
      vertex 2.07846 4.8 2.8
      vertex 2.19251 5.02383 2.8
    endloop
  endfacet
  facet normal 0 0 -1
    outer loop
      vertex 1.94164 -4.58932 2.8
      vertex 2.07846 4.8 2.8
      vertex 2.07846 -4.8 2.8
    endloop
  endfacet
  facet normal 0 0 -1
    outer loop
      vertex 1.94164 -4.58932 2.8
      vertex 1.94164 4.58932 2.8
      vertex 2.07846 4.8 2.8
    endloop
  endfacet
  facet normal 0 0 -1
    outer loop
      vertex 1.78355 -4.39409 2.8
      vertex 1.94164 4.58932 2.8
      vertex 1.94164 -4.58932 2.8
    endloop
  endfacet
  facet normal 0 0 -1
    outer loop
      vertex 1.78355 -4.39409 2.8
      vertex 1.78355 4.39409 2.8
      vertex 1.94164 4.58932 2.8
    endloop
  endfacet
  facet normal 0 0 -1
    outer loop
      vertex 1.60591 -4.21645 2.8
      vertex 1.78355 4.39409 2.8
      vertex 1.78355 -4.39409 2.8
    endloop
  endfacet
  facet normal 0 0 -1
    outer loop
      vertex 1.60591 -4.21645 2.8
      vertex 1.60591 4.21645 2.8
      vertex 1.78355 4.39409 2.8
    endloop
  endfacet
  facet normal 0 0 -1
    outer loop
      vertex 1.41068 -4.05836 2.8
      vertex 1.60591 4.21645 2.8
      vertex 1.60591 -4.21645 2.8
    endloop
  endfacet
  facet normal 0 0 -1
    outer loop
      vertex 1.41068 -4.05836 2.8
      vertex 1.41068 4.05836 2.8
      vertex 1.60591 4.21645 2.8
    endloop
  endfacet
  facet normal 0 0 -1
    outer loop
      vertex 1.2 -3.92154 2.8
      vertex 1.41068 4.05836 2.8
      vertex 1.41068 -4.05836 2.8
    endloop
  endfacet
  facet normal 0 0 -1
    outer loop
      vertex 1.2 -3.92154 2.8
      vertex 1.2 3.92154 2.8
      vertex 1.41068 4.05836 2.8
    endloop
  endfacet
  facet normal 0 0 -1
    outer loop
      vertex 0.976168 -3.80749 2.8
      vertex 1.2 3.92154 2.8
      vertex 1.2 -3.92154 2.8
    endloop
  endfacet
  facet normal 0 0 -1
    outer loop
      vertex 0.976168 -3.80749 2.8
      vertex 0.976168 3.80749 2.8
      vertex 1.2 3.92154 2.8
    endloop
  endfacet
  facet normal 0 0 -1
    outer loop
      vertex 0.74164 -3.71746 2.8
      vertex 0.976168 3.80749 2.8
      vertex 0.976168 -3.80749 2.8
    endloop
  endfacet
  facet normal 0 0 -1
    outer loop
      vertex 0.74164 -3.71746 2.8
      vertex 0.74164 3.71746 2.8
      vertex 0.976168 3.80749 2.8
    endloop
  endfacet
  facet normal 0 0 -1
    outer loop
      vertex 0.498987 -3.65245 2.8
      vertex 0.74164 3.71746 2.8
      vertex 0.74164 -3.71746 2.8
    endloop
  endfacet
  facet normal 0 0 -1
    outer loop
      vertex 0.498987 -3.65245 2.8
      vertex 0.498987 3.65245 2.8
      vertex 0.74164 3.71746 2.8
    endloop
  endfacet
  facet normal 0 0 -1
    outer loop
      vertex 0.250868 -3.61315 2.8
      vertex 0.498987 3.65245 2.8
      vertex 0.498987 -3.65245 2.8
    endloop
  endfacet
  facet normal 0 0 -1
    outer loop
      vertex 0.250868 -3.61315 2.8
      vertex 0.250868 3.61315 2.8
      vertex 0.498987 3.65245 2.8
    endloop
  endfacet
  facet normal 0 0 -1
    outer loop
      vertex 0 -3.6 2.8
      vertex 0.250868 3.61315 2.8
      vertex 0.250868 -3.61315 2.8
    endloop
  endfacet
  facet normal 0 0 -1
    outer loop
      vertex 0 -3.6 2.8
      vertex 0 3.6 2.8
      vertex 0.250868 3.61315 2.8
    endloop
  endfacet
  facet normal 0 0 -1
    outer loop
      vertex -0.250868 -3.61315 2.8
      vertex 0 3.6 2.8
      vertex 0 -3.6 2.8
    endloop
  endfacet
  facet normal 0 0 -1
    outer loop
      vertex -0.250868 -3.61315 2.8
      vertex -0.250868 3.61315 2.8
      vertex 0 3.6 2.8
    endloop
  endfacet
  facet normal 0 0 -1
    outer loop
      vertex -0.498987 -3.65245 2.8
      vertex -0.250868 3.61315 2.8
      vertex -0.250868 -3.61315 2.8
    endloop
  endfacet
  facet normal 0 0 -1
    outer loop
      vertex -0.498987 -3.65245 2.8
      vertex -0.498987 3.65245 2.8
      vertex -0.250868 3.61315 2.8
    endloop
  endfacet
  facet normal 0 0 -1
    outer loop
      vertex -0.74164 -3.71746 2.8
      vertex -0.498987 3.65245 2.8
      vertex -0.498987 -3.65245 2.8
    endloop
  endfacet
  facet normal 0 0 -1
    outer loop
      vertex -0.74164 -3.71746 2.8
      vertex -0.74164 3.71746 2.8
      vertex -0.498987 3.65245 2.8
    endloop
  endfacet
  facet normal 0 0 -1
    outer loop
      vertex -0.976168 -3.80749 2.8
      vertex -0.74164 3.71746 2.8
      vertex -0.74164 -3.71746 2.8
    endloop
  endfacet
  facet normal 0 0 -1
    outer loop
      vertex -0.976168 -3.80749 2.8
      vertex -0.976168 3.80749 2.8
      vertex -0.74164 3.71746 2.8
    endloop
  endfacet
  facet normal 0 0 -1
    outer loop
      vertex -1.2 -3.92154 2.8
      vertex -0.976168 3.80749 2.8
      vertex -0.976168 -3.80749 2.8
    endloop
  endfacet
  facet normal 0 0 -1
    outer loop
      vertex -1.2 -3.92154 2.8
      vertex -1.2 3.92154 2.8
      vertex -0.976168 3.80749 2.8
    endloop
  endfacet
  facet normal 0 0 -1
    outer loop
      vertex -1.41068 -4.05836 2.8
      vertex -1.2 3.92154 2.8
      vertex -1.2 -3.92154 2.8
    endloop
  endfacet
  facet normal 0 0 -1
    outer loop
      vertex -1.41068 -4.05836 2.8
      vertex -1.41068 4.05836 2.8
      vertex -1.2 3.92154 2.8
    endloop
  endfacet
  facet normal 0 0 -1
    outer loop
      vertex -1.60591 -4.21645 2.8
      vertex -1.41068 4.05836 2.8
      vertex -1.41068 -4.05836 2.8
    endloop
  endfacet
  facet normal 0 0 -1
    outer loop
      vertex -1.60591 -4.21645 2.8
      vertex -1.60591 4.21645 2.8
      vertex -1.41068 4.05836 2.8
    endloop
  endfacet
  facet normal 0 0 -1
    outer loop
      vertex -1.78355 -4.39409 2.8
      vertex -1.60591 4.21645 2.8
      vertex -1.60591 -4.21645 2.8
    endloop
  endfacet
  facet normal 0 0 -1
    outer loop
      vertex -1.78355 -4.39409 2.8
      vertex -1.78355 4.39409 2.8
      vertex -1.60591 4.21645 2.8
    endloop
  endfacet
  facet normal 0 0 -1
    outer loop
      vertex -1.94164 -4.58932 2.8
      vertex -1.78355 4.39409 2.8
      vertex -1.78355 -4.39409 2.8
    endloop
  endfacet
  facet normal 0 0 -1
    outer loop
      vertex -1.94164 -4.58932 2.8
      vertex -1.94164 4.58932 2.8
      vertex -1.78355 4.39409 2.8
    endloop
  endfacet
  facet normal 0 0 -1
    outer loop
      vertex -2.07846 -4.8 2.8
      vertex -1.94164 4.58932 2.8
      vertex -1.94164 -4.58932 2.8
    endloop
  endfacet
  facet normal 0 0 -1
    outer loop
      vertex -2.07846 -4.8 2.8
      vertex -2.07846 4.8 2.8
      vertex -1.94164 4.58932 2.8
    endloop
  endfacet
  facet normal 0 0 -1
    outer loop
      vertex -11 -10 2.8
      vertex -2.07846 -4.8 2.8
      vertex -2.19251 -5.02383 2.8
    endloop
  endfacet
  facet normal -0 0 -1
    outer loop
      vertex -2.07846 -4.8 2.8
      vertex -11 -10 2.8
      vertex -2.07846 4.8 2.8
    endloop
  endfacet
  facet normal 0 0 -1
    outer loop
      vertex -11 -10 2.8
      vertex -2.19251 -5.02383 2.8
      vertex -2.28254 -5.25836 2.8
    endloop
  endfacet
  facet normal 0 0 -1
    outer loop
      vertex -11 10 2.8
      vertex -2.07846 4.8 2.8
      vertex -11 -10 2.8
    endloop
  endfacet
  facet normal 0 0 -1
    outer loop
      vertex -11 -10 2.8
      vertex -2.28254 -5.25836 2.8
      vertex -2.34755 -5.50101 2.8
    endloop
  endfacet
  facet normal 0 0 -1
    outer loop
      vertex -2.07846 4.8 2.8
      vertex -11 10 2.8
      vertex -2.19251 5.02383 2.8
    endloop
  endfacet
  facet normal 0 0 -1
    outer loop
      vertex -11 -10 2.8
      vertex -2.34755 -5.50101 2.8
      vertex -2.38685 -5.74913 2.8
    endloop
  endfacet
  facet normal 0 0 -1
    outer loop
      vertex -2.19251 5.02383 2.8
      vertex -11 10 2.8
      vertex -2.28254 5.25836 2.8
    endloop
  endfacet
  facet normal 0 0 -1
    outer loop
      vertex -11 -10 2.8
      vertex -2.38685 -5.74913 2.8
      vertex -2.4 -6 2.8
    endloop
  endfacet
  facet normal 0 0 -1
    outer loop
      vertex -2.28254 5.25836 2.8
      vertex -11 10 2.8
      vertex -2.34755 5.50101 2.8
    endloop
  endfacet
  facet normal 0 0 -1
    outer loop
      vertex 2.38685 -5.74913 2.8
      vertex 11 -10 2.8
      vertex 2.4 -6 2.8
    endloop
  endfacet
  facet normal 0 0 -1
    outer loop
      vertex 11 -10 2.8
      vertex 2.38685 -6.25087 2.8
      vertex 2.4 -6 2.8
    endloop
  endfacet
  facet normal 0 0 -1
    outer loop
      vertex 11 -10 2.8
      vertex 2.34755 -6.49899 2.8
      vertex 2.38685 -6.25087 2.8
    endloop
  endfacet
  facet normal 0 0 -1
    outer loop
      vertex 11 -10 2.8
      vertex 2.28254 -6.74164 2.8
      vertex 2.34755 -6.49899 2.8
    endloop
  endfacet
  facet normal 0 0 -1
    outer loop
      vertex 11 -10 2.8
      vertex 2.19251 -6.97617 2.8
      vertex 2.28254 -6.74164 2.8
    endloop
  endfacet
  facet normal 0 0 -1
    outer loop
      vertex 11 -10 2.8
      vertex 2.07846 -7.2 2.8
      vertex 2.19251 -6.97617 2.8
    endloop
  endfacet
  facet normal 0 0 -1
    outer loop
      vertex 11 -10 2.8
      vertex 1.94164 -7.41068 2.8
      vertex 2.07846 -7.2 2.8
    endloop
  endfacet
  facet normal 0 0 -1
    outer loop
      vertex 11 -10 2.8
      vertex 1.78355 -7.60591 2.8
      vertex 1.94164 -7.41068 2.8
    endloop
  endfacet
  facet normal 0 0 -1
    outer loop
      vertex 11 -10 2.8
      vertex 1.60591 -7.78355 2.8
      vertex 1.78355 -7.60591 2.8
    endloop
  endfacet
  facet normal 0 0 -1
    outer loop
      vertex 11 -10 2.8
      vertex 1.41068 -7.94164 2.8
      vertex 1.60591 -7.78355 2.8
    endloop
  endfacet
  facet normal 0 0 -1
    outer loop
      vertex 11 -10 2.8
      vertex 1.2 -8.07846 2.8
      vertex 1.41068 -7.94164 2.8
    endloop
  endfacet
  facet normal 0 0 -1
    outer loop
      vertex 11 -10 2.8
      vertex 0.976168 -8.19251 2.8
      vertex 1.2 -8.07846 2.8
    endloop
  endfacet
  facet normal 0 0 -1
    outer loop
      vertex 11 -10 2.8
      vertex 0.74164 -8.28254 2.8
      vertex 0.976168 -8.19251 2.8
    endloop
  endfacet
  facet normal 0 0 -1
    outer loop
      vertex 11 -10 2.8
      vertex 0.498987 -8.34755 2.8
      vertex 0.74164 -8.28254 2.8
    endloop
  endfacet
  facet normal 0 0 -1
    outer loop
      vertex 11 -10 2.8
      vertex 0.250868 -8.38685 2.8
      vertex 0.498987 -8.34755 2.8
    endloop
  endfacet
  facet normal 0 0 -1
    outer loop
      vertex 11 -10 2.8
      vertex 0 -8.4 2.8
      vertex 0.250868 -8.38685 2.8
    endloop
  endfacet
  facet normal 0 0 -1
    outer loop
      vertex -11 -10 2.8
      vertex 0 -8.4 2.8
      vertex 11 -10 2.8
    endloop
  endfacet
  facet normal 0 0 -1
    outer loop
      vertex -2.34755 5.50101 2.8
      vertex -11 10 2.8
      vertex -2.38685 5.74913 2.8
    endloop
  endfacet
  facet normal -0 0 -1
    outer loop
      vertex -2.38685 -6.25087 2.8
      vertex -11 -10 2.8
      vertex -2.4 -6 2.8
    endloop
  endfacet
  facet normal -0 0 -1
    outer loop
      vertex -2.34755 -6.49899 2.8
      vertex -11 -10 2.8
      vertex -2.38685 -6.25087 2.8
    endloop
  endfacet
  facet normal -0 0 -1
    outer loop
      vertex -2.28254 -6.74164 2.8
      vertex -11 -10 2.8
      vertex -2.34755 -6.49899 2.8
    endloop
  endfacet
  facet normal -0 0 -1
    outer loop
      vertex -2.19251 -6.97617 2.8
      vertex -11 -10 2.8
      vertex -2.28254 -6.74164 2.8
    endloop
  endfacet
  facet normal -0 0 -1
    outer loop
      vertex -2.07846 -7.2 2.8
      vertex -11 -10 2.8
      vertex -2.19251 -6.97617 2.8
    endloop
  endfacet
  facet normal -0 0 -1
    outer loop
      vertex -1.94164 -7.41068 2.8
      vertex -11 -10 2.8
      vertex -2.07846 -7.2 2.8
    endloop
  endfacet
  facet normal -0 0 -1
    outer loop
      vertex -1.78355 -7.60591 2.8
      vertex -11 -10 2.8
      vertex -1.94164 -7.41068 2.8
    endloop
  endfacet
  facet normal -0 0 -1
    outer loop
      vertex -1.60591 -7.78355 2.8
      vertex -11 -10 2.8
      vertex -1.78355 -7.60591 2.8
    endloop
  endfacet
  facet normal -0 0 -1
    outer loop
      vertex -1.41068 -7.94164 2.8
      vertex -11 -10 2.8
      vertex -1.60591 -7.78355 2.8
    endloop
  endfacet
  facet normal -0 0 -1
    outer loop
      vertex -1.2 -8.07846 2.8
      vertex -11 -10 2.8
      vertex -1.41068 -7.94164 2.8
    endloop
  endfacet
  facet normal -0 0 -1
    outer loop
      vertex -0.976168 -8.19251 2.8
      vertex -11 -10 2.8
      vertex -1.2 -8.07846 2.8
    endloop
  endfacet
  facet normal -0 0 -1
    outer loop
      vertex -0.74164 -8.28254 2.8
      vertex -11 -10 2.8
      vertex -0.976168 -8.19251 2.8
    endloop
  endfacet
  facet normal -0 0 -1
    outer loop
      vertex -0.498987 -8.34755 2.8
      vertex -11 -10 2.8
      vertex -0.74164 -8.28254 2.8
    endloop
  endfacet
  facet normal -0 0 -1
    outer loop
      vertex -0.250868 -8.38685 2.8
      vertex -11 -10 2.8
      vertex -0.498987 -8.34755 2.8
    endloop
  endfacet
  facet normal -0 0 -1
    outer loop
      vertex 0 -8.4 2.8
      vertex -11 -10 2.8
      vertex -0.250868 -8.38685 2.8
    endloop
  endfacet
  facet normal 0 0 -1
    outer loop
      vertex 2.34755 -5.50101 2.8
      vertex 11 -10 2.8
      vertex 2.38685 -5.74913 2.8
    endloop
  endfacet
  facet normal 0 0 -1
    outer loop
      vertex 2.38685 6.25087 2.8
      vertex 11 10 2.8
      vertex 2.4 6 2.8
    endloop
  endfacet
  facet normal 0 0 -1
    outer loop
      vertex 2.34755 6.49899 2.8
      vertex 11 10 2.8
      vertex 2.38685 6.25087 2.8
    endloop
  endfacet
  facet normal 0 0 -1
    outer loop
      vertex 2.28254 6.74164 2.8
      vertex 11 10 2.8
      vertex 2.34755 6.49899 2.8
    endloop
  endfacet
  facet normal 0 0 -1
    outer loop
      vertex 2.19251 6.97617 2.8
      vertex 11 10 2.8
      vertex 2.28254 6.74164 2.8
    endloop
  endfacet
  facet normal 0 0 -1
    outer loop
      vertex 2.07846 7.2 2.8
      vertex 11 10 2.8
      vertex 2.19251 6.97617 2.8
    endloop
  endfacet
  facet normal 0 0 -1
    outer loop
      vertex 1.94164 7.41068 2.8
      vertex 11 10 2.8
      vertex 2.07846 7.2 2.8
    endloop
  endfacet
  facet normal 0 0 -1
    outer loop
      vertex 1.78355 7.60591 2.8
      vertex 11 10 2.8
      vertex 1.94164 7.41068 2.8
    endloop
  endfacet
  facet normal 0 0 -1
    outer loop
      vertex 1.60591 7.78355 2.8
      vertex 11 10 2.8
      vertex 1.78355 7.60591 2.8
    endloop
  endfacet
  facet normal 0 0 -1
    outer loop
      vertex 1.41068 7.94164 2.8
      vertex 11 10 2.8
      vertex 1.60591 7.78355 2.8
    endloop
  endfacet
  facet normal 0 0 -1
    outer loop
      vertex 1.2 8.07846 2.8
      vertex 11 10 2.8
      vertex 1.41068 7.94164 2.8
    endloop
  endfacet
  facet normal 0 0 -1
    outer loop
      vertex 0.976168 8.19251 2.8
      vertex 11 10 2.8
      vertex 1.2 8.07846 2.8
    endloop
  endfacet
  facet normal 0 0 -1
    outer loop
      vertex 0.74164 8.28254 2.8
      vertex 11 10 2.8
      vertex 0.976168 8.19251 2.8
    endloop
  endfacet
  facet normal 0 0 -1
    outer loop
      vertex 0.498987 8.34755 2.8
      vertex 11 10 2.8
      vertex 0.74164 8.28254 2.8
    endloop
  endfacet
  facet normal 0 0 -1
    outer loop
      vertex 0.250868 8.38685 2.8
      vertex 11 10 2.8
      vertex 0.498987 8.34755 2.8
    endloop
  endfacet
  facet normal 0 0 -1
    outer loop
      vertex 0 8.4 2.8
      vertex 11 10 2.8
      vertex 0.250868 8.38685 2.8
    endloop
  endfacet
  facet normal 0 0 -1
    outer loop
      vertex -11 10 2.8
      vertex 0 8.4 2.8
      vertex -0.250868 8.38685 2.8
    endloop
  endfacet
  facet normal 0 0 -1
    outer loop
      vertex -2.38685 5.74913 2.8
      vertex -11 10 2.8
      vertex -2.4 6 2.8
    endloop
  endfacet
  facet normal 0 0 -1
    outer loop
      vertex -2.4 6 2.8
      vertex -11 10 2.8
      vertex -2.38685 6.25087 2.8
    endloop
  endfacet
  facet normal 0 0 -1
    outer loop
      vertex -2.38685 6.25087 2.8
      vertex -11 10 2.8
      vertex -2.34755 6.49899 2.8
    endloop
  endfacet
  facet normal 0 0 -1
    outer loop
      vertex -2.34755 6.49899 2.8
      vertex -11 10 2.8
      vertex -2.28254 6.74164 2.8
    endloop
  endfacet
  facet normal 0 0 -1
    outer loop
      vertex -2.28254 6.74164 2.8
      vertex -11 10 2.8
      vertex -2.19251 6.97617 2.8
    endloop
  endfacet
  facet normal 0 0 -1
    outer loop
      vertex 0 8.4 2.8
      vertex -11 10 2.8
      vertex 11 10 2.8
    endloop
  endfacet
  facet normal 0 0 -1
    outer loop
      vertex -0.498987 8.34755 2.8
      vertex -11 10 2.8
      vertex -0.250868 8.38685 2.8
    endloop
  endfacet
  facet normal 0 0 -1
    outer loop
      vertex -0.74164 8.28254 2.8
      vertex -11 10 2.8
      vertex -0.498987 8.34755 2.8
    endloop
  endfacet
  facet normal 0 0 -1
    outer loop
      vertex -0.976168 8.19251 2.8
      vertex -11 10 2.8
      vertex -0.74164 8.28254 2.8
    endloop
  endfacet
  facet normal 0 0 -1
    outer loop
      vertex -1.2 8.07846 2.8
      vertex -11 10 2.8
      vertex -0.976168 8.19251 2.8
    endloop
  endfacet
  facet normal 0 0 -1
    outer loop
      vertex -1.41068 7.94164 2.8
      vertex -11 10 2.8
      vertex -1.2 8.07846 2.8
    endloop
  endfacet
  facet normal 0 0 -1
    outer loop
      vertex -1.60591 7.78355 2.8
      vertex -11 10 2.8
      vertex -1.41068 7.94164 2.8
    endloop
  endfacet
  facet normal 0 0 -1
    outer loop
      vertex -1.78355 7.60591 2.8
      vertex -11 10 2.8
      vertex -1.60591 7.78355 2.8
    endloop
  endfacet
  facet normal 0 0 -1
    outer loop
      vertex -1.94164 7.41068 2.8
      vertex -11 10 2.8
      vertex -1.78355 7.60591 2.8
    endloop
  endfacet
  facet normal 0 0 -1
    outer loop
      vertex -2.07846 7.2 2.8
      vertex -11 10 2.8
      vertex -1.94164 7.41068 2.8
    endloop
  endfacet
  facet normal 0 0 -1
    outer loop
      vertex -2.19251 6.97617 2.8
      vertex -11 10 2.8
      vertex -2.07846 7.2 2.8
    endloop
  endfacet
  facet normal 0 -1 0
    outer loop
      vertex -11 -10 2.8
      vertex 11 -10 6.8
      vertex -11 -10 6.8
    endloop
  endfacet
  facet normal 0 -1 -0
    outer loop
      vertex 11 -10 6.8
      vertex -11 -10 2.8
      vertex 11 -10 2.8
    endloop
  endfacet
  facet normal 0 1 -0
    outer loop
      vertex 11 10 2.8
      vertex -11 10 6.8
      vertex 11 10 6.8
    endloop
  endfacet
  facet normal 0 1 0
    outer loop
      vertex -11 10 6.8
      vertex 11 10 2.8
      vertex -11 10 2.8
    endloop
  endfacet
endsolid OpenSCAD_Model
